<svg width="24" height="24" viewBox="0 0 24 24" fill="none" xmlns="http://www.w3.org/2000/svg">
<path fill-rule="evenodd" clip-rule="evenodd" d="M11.8598 1.84279C12.1297 1.57373 12.1297 1.13751 11.8598 0.868455C11.5899 0.599401 11.1523 0.599401 10.8824 0.868455L0.202423 11.5151C0.0727957 11.6444 -1.97688e-05 11.8196 4.0259e-09 12.0024C1.97769e-05 12.1851 0.0728729 12.3604 0.202527 12.4896L10.8825 23.1316C11.1525 23.4006 11.59 23.4005 11.8599 23.1314C12.1297 22.8623 12.1296 22.4261 11.8597 22.1571L2.36011 12.6912H23.3089C23.6906 12.6912 24 12.3828 24 12.0023C24 11.6218 23.6906 11.3133 23.3089 11.3133H2.35961L11.8598 1.84279Z" fill="white"/>
</svg>
