<svg width="24" height="24" viewBox="0 0 24 24" fill="none" xmlns="http://www.w3.org/2000/svg">
<path fill-rule="evenodd" clip-rule="evenodd" d="M12.1402 1.84279C11.8703 1.57373 11.8703 1.13751 12.1402 0.868455C12.4101 0.599401 12.8477 0.599401 13.1176 0.868455L23.7976 11.5151C23.9272 11.6444 24 11.8196 24 12.0024C24 12.1851 23.9271 12.3604 23.7975 12.4896L13.1175 23.1316C12.8475 23.4006 12.41 23.4005 12.1401 23.1314C11.8703 22.8623 11.8704 22.4261 12.1403 22.1571L21.6399 12.6912H0.691109C0.309422 12.6912 0 12.3828 0 12.0023C0 11.6218 0.309422 11.3133 0.691109 11.3133H21.6404L12.1402 1.84279Z" fill="white"/>
</svg>
