<svg width="18" height="18" viewBox="0 0 18 18" fill="none" xmlns="http://www.w3.org/2000/svg">
<path fill-rule="evenodd" clip-rule="evenodd" d="M9.10517 1.38209C8.90274 1.1803 8.90274 0.853134 9.10517 0.651343C9.30759 0.449552 9.63578 0.449552 9.8382 0.651343L17.8482 8.63635C17.9454 8.73327 18 8.86472 18 9.00178C18 9.13884 17.9453 9.27028 17.8481 9.36718L9.83812 17.3487C9.63566 17.5505 9.30747 17.5504 9.10509 17.3486C8.90271 17.1467 8.90278 16.8196 9.10525 16.6178L16.2299 9.51844H0.518332C0.232067 9.51844 0 9.2871 0 9.00172C0 8.71635 0.232067 8.485 0.518332 8.485H16.2303L9.10517 1.38209Z" fill="white"/>
</svg>
