<svg width="24" height="24" viewBox="0 0 24 24" fill="none" xmlns="http://www.w3.org/2000/svg">
<path d="M12 24C18.6274 24 24 18.6274 24 12C24 5.37258 18.6274 0 12 0C5.37258 0 0 5.37258 0 12C0 18.6274 5.37258 24 12 24Z" fill="#16428D"/>
<path d="M8.14215 19.4297C8.0476 19.4297 7.95692 19.3921 7.89006 19.3253C7.8232 19.2584 7.78564 19.1677 7.78564 19.0732V16.1641C6.00311 15.0126 4.93359 13.2193 4.93359 11.3299C4.93359 7.96443 8.23128 5.2229 12.2848 5.2229C16.3382 5.2229 19.6359 7.96443 19.6359 11.3299C19.6359 14.6311 16.4274 17.3548 12.4666 17.4368L8.29545 19.3976C8.24712 19.4188 8.19492 19.4297 8.14215 19.4297ZM12.2848 5.93591C8.62343 5.93591 5.64661 8.35659 5.64661 11.3299C5.64661 13.0304 6.64839 14.6489 8.32753 15.6614C8.38009 15.6934 8.42347 15.7384 8.45346 15.7922C8.48344 15.8459 8.49901 15.9065 8.49866 15.968V18.5135L12.2313 16.7559C12.278 16.7332 12.3291 16.7211 12.381 16.7202C15.9889 16.6846 18.9229 14.2603 18.9229 11.3299C18.9229 8.39937 15.9461 5.93591 12.2848 5.93591Z" fill="white"/>
</svg>
