<svg width="32" height="32" viewBox="0 0 32 32" fill="none" xmlns="http://www.w3.org/2000/svg">
<circle cx="16" cy="16" r="16" fill="#1558A3"/>
<path d="M13.8454 10.8C13.824 11.28 13.7867 11.776 13.7334 12.288C13.68 12.8 13.6107 13.28 13.5254 13.728H12.8694L12.1334 11.84H9.14138V15.76H11.0934L11.7974 14.528H12.3094C12.3627 15.0507 12.3894 15.632 12.3894 16.272C12.3894 16.912 12.3627 17.5093 12.3094 18.064H11.7974L11.0934 16.8H9.14138V20.96H12.2614L13.1094 18.928H13.7654C13.808 19.1307 13.8507 19.36 13.8934 19.616C13.936 19.872 13.968 20.1387 13.9894 20.416C14.0214 20.6827 14.0427 20.9547 14.0534 21.232C14.0747 21.5093 14.0854 21.7653 14.0854 22H5.42938V21.392C5.61071 21.296 5.81338 21.2053 6.03738 21.12C6.26138 21.0347 6.49604 20.9707 6.74138 20.928V11.872C6.52804 11.8293 6.29871 11.7707 6.05338 11.696C5.81871 11.6107 5.61071 11.5147 5.42938 11.408V10.8H13.8454ZM22.6056 10.8H26.5736V11.408C26.371 11.568 26.147 11.712 25.9016 11.84C25.6563 11.9573 25.427 12.048 25.2136 12.112V22.192H23.8536L18.2056 14.032L17.5656 12.8H17.5176L17.6616 14.08V20.752C17.875 20.8053 18.1096 20.896 18.3656 21.024C18.6323 21.1413 18.8563 21.264 19.0376 21.392V22H15.0856V21.392C15.2776 21.264 15.4856 21.1467 15.7096 21.04C15.9443 20.9227 16.1843 20.8267 16.4296 20.752V12.016C16.2163 11.9307 16.003 11.8347 15.7896 11.728C15.5763 11.6213 15.3843 11.5093 15.2136 11.392V10.8H18.6696L23.2616 17.456L23.9976 18.832H24.0616L23.9816 17.456V12.112C23.7256 12.0267 23.475 11.9253 23.2296 11.808C22.995 11.68 22.787 11.5467 22.6056 11.408V10.8Z" fill="white"/>
</svg>
