<svg width="32" height="32" viewBox="0 0 32 32" fill="none" xmlns="http://www.w3.org/2000/svg">
<path d="M16 32C24.8366 32 32 24.8366 32 16C32 7.16344 24.8366 0 16 0C7.16345 0 0 7.16344 0 16C0 24.8366 7.16345 32 16 32Z" fill="#F50035"/>
<path d="M17.17 26.9904H13.6365C13.5028 26.9904 13.3745 26.9373 13.2799 26.8427C13.1853 26.7481 13.1322 26.6199 13.1322 26.4861V18.1213H10.7552C10.6215 18.1213 10.4932 18.0682 10.3986 17.9736C10.304 17.879 10.2509 17.7508 10.2509 17.617V14.0902C10.2509 13.9565 10.304 13.8282 10.3986 13.7336C10.4932 13.6391 10.6215 13.5859 10.7552 13.5859H13.1322V11.3132C13.1322 8.12595 15.0116 6.14907 18.0374 6.14907C18.9416 6.14361 19.8454 6.19189 20.7439 6.29363C20.8645 6.30986 20.9752 6.36918 21.0555 6.46063C21.1359 6.55208 21.1804 6.6695 21.1809 6.79122V9.94482C21.1809 10.0786 21.1278 10.2068 21.0332 10.3014C20.9387 10.396 20.8104 10.4491 20.6766 10.4491H18.8645C17.8559 10.4491 17.6743 10.7853 17.6743 11.6628V13.5859H20.364C20.4355 13.5864 20.5061 13.6019 20.5712 13.6315C20.6363 13.6612 20.6944 13.7042 20.7417 13.7578C20.789 13.8115 20.8244 13.8745 20.8456 13.9428C20.8669 14.0111 20.8734 14.0831 20.8649 14.1541L20.4245 17.6775C20.4104 17.8003 20.3515 17.9134 20.259 17.9954C20.1665 18.0773 20.0471 18.1221 19.9235 18.1213H17.6642V26.4861C17.6643 26.6181 17.6125 26.7449 17.5201 26.8392C17.4277 26.9335 17.302 26.9878 17.17 26.9904ZM14.1442 25.9818H16.6691V17.617C16.6691 17.4833 16.7222 17.355 16.8168 17.2604C16.9114 17.1658 17.0396 17.1127 17.1734 17.1127H19.4932L19.8059 14.5945H17.1734C17.0396 14.5945 16.9114 14.5414 16.8168 14.4468C16.7222 14.3523 16.6691 14.224 16.6691 14.0902V11.6628C16.6691 10.708 16.8977 9.44051 18.8679 9.44051H20.1757V7.24509C19.6815 7.20475 18.9015 7.15768 18.0408 7.15768C15.5999 7.15768 14.1442 8.71095 14.1442 11.3132V14.0902C14.1442 14.224 14.091 14.3523 13.9965 14.4468C13.9019 14.5414 13.7736 14.5945 13.6399 14.5945H11.2629V17.1127H13.6399C13.7736 17.1127 13.9019 17.1658 13.9965 17.2604C14.091 17.355 14.1442 17.4833 14.1442 17.617V25.9818Z" fill="white"/>
</svg>
