<svg width="24" height="24" viewBox="0 0 24 24" fill="none" xmlns="http://www.w3.org/2000/svg">
<path d="M12 24C18.6274 24 24 18.6274 24 12C24 5.37258 18.6274 0 12 0C5.37258 0 0 5.37258 0 12C0 18.6274 5.37258 24 12 24Z" fill="#16428D"/>
<path d="M6.8526 19.6792C6.75805 19.6792 6.66737 19.6416 6.60051 19.5748C6.53365 19.5079 6.49609 19.4172 6.49609 19.3227V6.33514C6.49609 6.24059 6.53365 6.14991 6.60051 6.08306C6.66737 6.0162 6.75805 5.97864 6.8526 5.97864H18.4818C18.5493 5.9792 18.6153 5.99892 18.672 6.03549C18.7288 6.07206 18.7739 6.12399 18.8023 6.18523C18.8307 6.24648 18.8411 6.31452 18.8324 6.38145C18.8236 6.44838 18.796 6.51144 18.7528 6.56331L15.3481 10.6275L18.7528 14.6917C18.796 14.7435 18.8237 14.8065 18.8325 14.8734C18.8413 14.9403 18.831 15.0083 18.8027 15.0695C18.7743 15.1309 18.7291 15.1829 18.6723 15.2195C18.6155 15.2561 18.5494 15.2758 18.4818 15.2763H7.20911V19.3227C7.20911 19.4172 7.17155 19.5079 7.10469 19.5748C7.03783 19.6416 6.94715 19.6792 6.8526 19.6792ZM7.20911 14.5633H17.7154L14.6173 10.8556C14.563 10.7913 14.5332 10.7099 14.5332 10.6257C14.5332 10.5415 14.563 10.4601 14.6173 10.3958L17.7225 6.69165H7.20911V14.5633Z" fill="white"/>
</svg>
