<svg width="32" height="32" viewBox="0 0 32 32" fill="none" xmlns="http://www.w3.org/2000/svg">
<path d="M16 32C24.8366 32 32 24.8366 32 16C32 7.16344 24.8366 0 16 0C7.16344 0 0 7.16344 0 16C0 24.8366 7.16344 32 16 32Z" fill="#F50035"/>
<path d="M16 26.5603C13.2801 26.5603 12.9204 26.5603 11.8344 26.4998C10.9462 26.4797 10.0676 26.3104 9.23556 25.9988C8.4979 25.7225 7.82992 25.2875 7.27885 24.7246C6.71903 24.1717 6.28549 23.5042 6.008 22.7679C5.69533 21.9374 5.52704 21.0596 5.51041 20.1724C5.45998 19.0965 5.44653 18.7368 5.44653 16.0068C5.44653 13.2768 5.44653 12.9205 5.50705 11.8412C5.52741 10.953 5.69675 10.0745 6.008 9.24237C6.29254 8.50932 6.72684 7.84367 7.28316 7.28793C7.83947 6.73219 8.50558 6.29858 9.23893 6.0148C10.0697 5.70287 10.9472 5.53351 11.8344 5.51386C12.9204 5.46679 13.2801 5.45334 16 5.45334C18.7199 5.45334 19.083 5.45334 20.1656 5.51386C21.0539 5.53352 21.9325 5.70288 22.7645 6.0148C23.4989 6.2986 24.1658 6.73298 24.7222 7.29001C25.2787 7.84704 25.7124 8.51438 25.9954 9.2491C26.3041 10.0772 26.4723 10.951 26.493 11.8345C26.5434 12.9137 26.5535 13.2735 26.5535 16.0001C26.5535 18.7267 26.5602 19.0865 26.493 20.1724C26.4733 21.0607 26.304 21.9393 25.992 22.7713C25.708 23.5041 25.2743 24.1696 24.7186 24.7254C24.1628 25.2811 23.4973 25.7148 22.7645 25.9988C21.9342 26.3077 21.058 26.4748 20.1723 26.4931C19.083 26.5603 18.7233 26.5603 16 26.5603ZM16 6.46195C13.3104 6.46195 12.9473 6.46195 11.8815 6.52247C11.1028 6.53846 10.3322 6.68507 9.60203 6.95618C8.99811 7.18299 8.45086 7.53865 7.99833 7.99841C7.536 8.44949 7.17897 8.99709 6.95273 9.60211C6.67823 10.3338 6.53043 11.1069 6.51566 11.8883C6.4686 12.9474 6.45515 13.3037 6.45515 16.0068C6.45515 18.7099 6.45515 19.0663 6.51566 20.1287C6.53235 20.9074 6.67893 21.6778 6.94937 22.4082C7.1771 23.0106 7.53267 23.5566 7.99161 24.0085C8.44256 24.4718 8.99013 24.8299 9.5953 25.0575C10.3276 25.3295 11.1005 25.4761 11.8815 25.4912C12.9473 25.5416 13.3003 25.5517 16 25.5517C18.6997 25.5517 19.0561 25.5517 20.1219 25.4912C20.9007 25.4761 21.6714 25.3295 22.4014 25.0575C23.0032 24.8249 23.5498 24.469 24.006 24.0128C24.4622 23.5566 24.8181 23.01 25.0507 22.4082C25.3227 21.6782 25.4693 20.9075 25.4844 20.1287C25.5348 19.0663 25.5449 18.7133 25.5449 16.0068C25.5449 13.3004 25.5449 12.9474 25.4844 11.8883C25.47 11.1094 25.3233 10.3386 25.0507 9.60883C24.8181 9.00713 24.4627 8.46049 24.0071 8.00376C23.5516 7.54704 23.0058 7.19026 22.4047 6.95618C21.6731 6.68604 20.9016 6.53947 20.1219 6.52247C19.0561 6.46868 18.6997 6.45523 16 6.45523V6.46195Z" fill="white"/>
<path d="M16 21.2313C14.9653 21.2313 13.9539 20.9244 13.0936 20.3496C12.2333 19.7748 11.5628 18.9578 11.1668 18.0019C10.7709 17.046 10.6673 15.9941 10.8691 14.9793C11.071 13.9645 11.5692 13.0324 12.3008 12.3008C13.0325 11.5692 13.9646 11.0709 14.9794 10.8691C15.9942 10.6672 17.046 10.7708 18.0019 11.1668C18.9578 11.5627 19.7749 12.2332 20.3497 13.0935C20.9245 13.9538 21.2313 14.9652 21.2313 15.9999C21.2295 17.3868 20.6778 18.7164 19.6971 19.6971C18.7164 20.6777 17.3869 21.2295 16 21.2313ZM16 11.7772C15.1648 11.7772 14.3484 12.0248 13.6539 12.4888C12.9595 12.9528 12.4183 13.6123 12.0987 14.3839C11.7791 15.1555 11.6954 16.0046 11.8584 16.8237C12.0213 17.6429 12.4235 18.3953 13.014 18.9858C13.6046 19.5764 14.357 19.9786 15.1762 20.1415C15.9953 20.3044 16.8443 20.2208 17.6159 19.9012C18.3875 19.5816 19.047 19.0404 19.511 18.3459C19.975 17.6515 20.2227 16.8351 20.2227 15.9999C20.2236 14.8788 19.7793 13.8031 18.9875 13.0094C18.1957 12.2157 17.1211 11.7689 16 11.7671V11.7772Z" fill="white"/>
<path d="M21.5844 11.2527C22.3067 11.2527 22.8922 10.6672 22.8922 9.94489C22.8922 9.22259 22.3067 8.63705 21.5844 8.63705C20.8621 8.63705 20.2766 9.22259 20.2766 9.94489C20.2766 10.6672 20.8621 11.2527 21.5844 11.2527Z" fill="white"/>
</svg>
