<svg width="32" height="32" viewBox="0 0 32 32" fill="none" xmlns="http://www.w3.org/2000/svg">
<circle cx="16" cy="16" r="16" fill="#1558A3"/>
<path d="M11.3762 10.8H15.6642V11.408C15.4829 11.5253 15.2749 11.6267 15.0402 11.712C14.8055 11.7867 14.5922 11.84 14.4002 11.872L11.3602 15.728C11.6055 16.0693 11.8935 16.4587 12.2242 16.896C12.5549 17.3227 12.9069 17.7707 13.2802 18.24C13.6535 18.6987 14.0375 19.168 14.4322 19.648C14.8269 20.1173 15.2109 20.5653 15.5842 20.992L16.3522 21.456V22H13.5682L12.9282 21.552C12.6722 21.232 12.4002 20.88 12.1122 20.496C11.8349 20.1013 11.5575 19.696 11.2802 19.28C11.0029 18.8533 10.7309 18.4267 10.4642 18C10.1975 17.5733 9.94685 17.1573 9.71219 16.752H9.02419V20.928C9.25885 20.9707 9.47219 21.0347 9.66419 21.12C9.85619 21.2053 10.0215 21.296 10.1602 21.392V22H5.31219V21.392C5.52552 21.2853 5.74419 21.1947 5.96819 21.12C6.19219 21.0347 6.41085 20.9707 6.62419 20.928V11.872C6.37885 11.84 6.13885 11.7813 5.90419 11.696C5.68019 11.6107 5.48285 11.5147 5.31219 11.408V10.8H10.1602V11.408C10.0215 11.4933 9.85085 11.5787 9.64819 11.664C9.45619 11.7493 9.24819 11.8187 9.02419 11.872V15.936L9.96819 15.712L12.5442 11.872C12.3309 11.8293 12.1175 11.7653 11.9042 11.68C11.7015 11.584 11.5255 11.4933 11.3762 11.408V10.8ZM25.8401 21.296C25.6267 21.4027 25.3654 21.5093 25.0561 21.616C24.7467 21.7227 24.4214 21.8187 24.0801 21.904C23.7387 21.9893 23.3974 22.0587 23.0561 22.112C22.7147 22.1653 22.4107 22.192 22.1441 22.192C21.2267 22.192 20.4054 22.0747 19.6801 21.84C18.9654 21.5947 18.3521 21.232 17.8401 20.752C17.3387 20.2613 16.9547 19.6533 16.6881 18.928C16.4214 18.2027 16.2881 17.36 16.2881 16.4C16.2881 15.3547 16.4481 14.4693 16.7681 13.744C17.0987 13.008 17.5307 12.4107 18.0641 11.952C18.6081 11.4827 19.2214 11.1413 19.9041 10.928C20.5867 10.7147 21.2854 10.608 22.0001 10.608C22.7041 10.608 23.3654 10.656 23.9841 10.752C24.6027 10.848 25.0934 10.9867 25.4561 11.168C25.4561 11.328 25.4454 11.536 25.4241 11.792C25.4134 12.0373 25.3921 12.304 25.3601 12.592C25.3281 12.88 25.2854 13.168 25.2321 13.456C25.1894 13.744 25.1361 14.0053 25.0721 14.24H24.4161L23.5201 11.808C23.4027 11.7547 23.2267 11.7173 22.9921 11.696C22.7574 11.664 22.5227 11.648 22.2881 11.648C21.8507 11.648 21.4294 11.7333 21.0241 11.904C20.6187 12.0747 20.2614 12.352 19.9521 12.736C19.6427 13.1093 19.3974 13.6 19.2161 14.208C19.0347 14.8053 18.9441 15.536 18.9441 16.4C18.9441 17.104 19.0241 17.7493 19.1841 18.336C19.3547 18.912 19.5894 19.408 19.8881 19.824C20.1867 20.24 20.5441 20.5653 20.9601 20.8C21.3761 21.0347 21.8347 21.152 22.3361 21.152C22.4961 21.152 22.6614 21.1413 22.8321 21.12C23.0027 21.088 23.1627 21.0507 23.3121 21.008C23.4614 20.9653 23.5894 20.9173 23.6961 20.864C23.8134 20.8107 23.8934 20.7627 23.9361 20.72V17.712C23.6587 17.6907 23.3974 17.6373 23.1521 17.552C22.9067 17.4667 22.6774 17.3653 22.4641 17.248V16.64H26.8321V17.248C26.7361 17.344 26.6081 17.4347 26.4481 17.52C26.2881 17.5947 26.0854 17.6587 25.8401 17.712V21.296Z" fill="white"/>
</svg>
