<svg width="32" height="32" viewBox="0 0 32 32" fill="none" xmlns="http://www.w3.org/2000/svg">
<circle cx="16" cy="16" r="16" fill="#1558A3"/>
<path d="M11.7903 10.8H16.0783V11.408C15.8969 11.5253 15.6889 11.6267 15.4543 11.712C15.2196 11.7867 15.0063 11.84 14.8142 11.872L11.7743 15.728C12.0196 16.0693 12.3076 16.4587 12.6383 16.896C12.9689 17.3227 13.3209 17.7707 13.6943 18.24C14.0676 18.6987 14.4516 19.168 14.8463 19.648C15.2409 20.1173 15.6249 20.5653 15.9983 20.992L16.7663 21.456V22H13.9823L13.3423 21.552C13.0863 21.232 12.8143 20.88 12.5263 20.496C12.2489 20.1013 11.9716 19.696 11.6943 19.28C11.4169 18.8533 11.1449 18.4267 10.8783 18C10.6116 17.5733 10.3609 17.1573 10.1263 16.752H9.43825V20.928C9.67292 20.9707 9.88625 21.0347 10.0783 21.12C10.2703 21.2053 10.4356 21.296 10.5743 21.392V22H5.72625V21.392C5.93958 21.2853 6.15825 21.1947 6.38225 21.12C6.60625 21.0347 6.82492 20.9707 7.03825 20.928V11.872C6.79292 11.84 6.55292 11.7813 6.31825 11.696C6.09425 11.6107 5.89692 11.5147 5.72625 11.408V10.8H10.5743V11.408C10.4356 11.4933 10.2649 11.5787 10.0623 11.664C9.87025 11.7493 9.66225 11.8187 9.43825 11.872V15.936L10.3823 15.712L12.9583 11.872C12.7449 11.8293 12.5316 11.7653 12.3183 11.68C12.1156 11.584 11.9396 11.4933 11.7903 11.408V10.8ZM25.0451 18.624H25.7171C25.7598 18.848 25.7971 19.104 25.8291 19.392C25.8718 19.6693 25.9091 19.9627 25.9411 20.272C25.9731 20.5707 25.9945 20.8693 26.0051 21.168C26.0265 21.4667 26.0371 21.744 26.0371 22H17.0131V20.96L23.2211 11.84H19.2531L18.3091 14.128H17.6371C17.5838 13.8933 17.5358 13.6267 17.4931 13.328C17.4505 13.0293 17.4131 12.7307 17.3811 12.432C17.3491 12.1227 17.3278 11.8293 17.3171 11.552C17.3065 11.264 17.3011 11.0133 17.3011 10.8H25.8451V11.84L19.6691 20.96H24.0531L25.0451 18.624Z" fill="white"/>
</svg>
