<svg width="24" height="24" viewBox="0 0 24 24" fill="none" xmlns="http://www.w3.org/2000/svg">
<path d="M12 24C18.6274 24 24 18.6274 24 12C24 5.37258 18.6274 0 12 0C5.37258 0 0 5.37258 0 12C0 18.6274 5.37258 24 12 24Z" fill="#16428D"/>
<path d="M11.9997 3.6543C10.1972 3.65618 8.46908 4.37307 7.19451 5.64764C5.91994 6.92221 5.20306 8.65036 5.20117 10.4529C5.20117 16.2247 11.465 20.1249 11.7324 20.2853L11.9997 20.4493L12.2671 20.2853C12.5309 20.1249 18.7983 16.2247 18.7983 10.4529C18.7964 8.65036 18.0796 6.92221 16.805 5.64764C15.5304 4.37307 13.8023 3.65618 11.9997 3.6543ZM11.9997 19.2408C10.8304 18.4457 6.22078 15.0126 6.22078 10.4529C6.20163 9.68212 6.3369 8.91534 6.61863 8.19767C6.90035 7.48 7.32283 6.82596 7.86118 6.27406C8.39954 5.72217 9.04289 5.28357 9.75334 4.98411C10.4638 4.68465 11.227 4.53038 11.998 4.53038C12.7689 4.53038 13.5321 4.68465 14.2426 4.98411C14.953 5.28357 15.5964 5.72217 16.1347 6.27406C16.6731 6.82596 17.0956 7.48 17.3773 8.19767C17.659 8.91534 17.7943 9.68212 17.7751 10.4529C17.7751 15.0126 13.1691 18.4457 11.9997 19.2514V19.2408Z" fill="#F2F2F4"/>
<path d="M11.9998 7.73633C11.4625 7.73633 10.9373 7.89565 10.4905 8.19415C10.0438 8.49266 9.6956 8.91693 9.48999 9.41332C9.28438 9.90971 9.23058 10.4559 9.3354 10.9829C9.44022 11.5098 9.69895 11.9939 10.0789 12.3738C10.4588 12.7537 10.9428 13.0125 11.4698 13.1173C11.9968 13.2221 12.543 13.1683 13.0394 12.9627C13.5358 12.7571 13.96 12.4089 14.2585 11.9622C14.557 11.5154 14.7164 10.9902 14.7164 10.4529C14.7154 9.73271 14.4289 9.04229 13.9197 8.53304C13.4104 8.02378 12.72 7.73727 11.9998 7.73633ZM11.9998 12.1463C11.664 12.1463 11.3358 12.0467 11.0566 11.8601C10.7775 11.6734 10.56 11.4082 10.4316 11.0979C10.3033 10.7876 10.2699 10.4462 10.3357 10.117C10.4015 9.78769 10.5634 9.48532 10.8011 9.24814C11.0388 9.01096 11.3415 8.84962 11.6709 8.78454C12.0003 8.71947 12.3416 8.75358 12.6517 8.88257C12.9617 9.01156 13.2265 9.22962 13.4125 9.50915C13.5985 9.78868 13.6975 10.1171 13.6968 10.4529C13.6958 10.9024 13.5166 11.3331 13.1985 11.6505C12.8803 11.968 12.4492 12.1463 11.9998 12.1463Z" fill="#F2F2F4"/>
</svg>
