<svg width="268" height="45" viewBox="0 0 268 45" fill="none" xmlns="http://www.w3.org/2000/svg">
<path fill-rule="evenodd" clip-rule="evenodd" d="M31.0646 45H41.826V43.128C41.826 43.128 34.6714 42.7705 34.3304 35.5294V32.5849C34.3697 30.8493 35.6419 26.2733 39.3012 25.9418C36.3502 25.3763 34.2451 22.3147 34.3238 19.2987C34.3238 19.2987 34.3238 18.5577 34.3238 15.9967C34.4943 7.65058 44.0163 7.72209 44.5016 7.72209H44.6721C52.8694 7.72209 53.7285 14.2222 53.7285 14.6122H55.5385L54.8827 2.48953L54.6991 0H53.4531C53.4531 0 52.7973 2.13202 48.0101 2.13202H12.4927C7.69891 2.15152 7.04313 0 7.04313 0H5.81025L5.60696 2.50253L4.95117 14.6122H6.76114C6.76114 14.2027 7.62678 7.72209 15.811 7.72209H15.9946C16.4733 7.72209 25.9953 7.65058 26.1593 15.9967C26.1593 18.5577 26.1593 19.2987 26.1593 19.2987C26.2314 22.3147 24.1198 25.3503 21.1688 25.9418C24.8215 26.2733 26.1003 30.8493 26.1462 32.5849V35.5294C25.8117 42.7705 18.6702 43.1345 18.6702 43.1345V45H31.0646Z" fill="#F70035"/>
<path fill-rule="evenodd" clip-rule="evenodd" d="M60.6799 25.9418C59.7749 24.5248 56.0894 23.9918 55.0401 24.1283C55.9648 22.8283 56.0697 20.5662 55.5713 19.0972C54.9811 17.3877 53.8859 17.1082 53.7548 18.8632C53.5121 22.1652 50.4758 24.2323 46.7903 23.8618C45.7016 23.7901 44.6696 23.3543 43.8631 22.6258C43.0567 21.8973 42.5234 20.9191 42.3507 19.8512C42.0228 17.9662 42.5015 16.0617 44.6525 15.5352C46.4034 15.1127 47.5773 16.0747 47.6494 17.2642C47.7609 19.1232 46.1542 18.4407 45.9116 19.6302C45.8709 19.8278 45.8734 20.0318 45.9189 20.2284C45.9645 20.425 46.0521 20.6096 46.1758 20.7698C46.2995 20.93 46.4564 21.062 46.6359 21.1569C46.8155 21.2519 47.0135 21.3076 47.2166 21.3202C50.6267 21.4437 51.6038 18.3237 51.1513 16.2112C50.904 14.8448 50.1746 13.6101 49.0934 12.7277C48.0122 11.8453 46.6496 11.3728 45.2492 11.3946C41.5244 11.3101 37.97 13.7997 37.97 18.8372C37.9472 20.2656 38.3051 21.6746 39.0075 22.922C39.7098 24.1695 40.7319 25.2111 41.9703 25.9418C40.7187 26.6632 39.6829 27.7011 38.9685 28.9493C38.2542 30.1976 37.887 31.6114 37.9044 33.0464C37.9044 38.0839 41.4588 40.5735 45.1837 40.489C46.584 40.5108 47.9466 40.0383 49.0278 39.1559C50.109 38.2735 50.8385 37.0388 51.0857 35.6724C51.5251 33.5599 50.548 30.4723 47.151 30.5633C46.948 30.5753 46.75 30.6301 46.5702 30.7243C46.3904 30.8185 46.233 30.9498 46.1088 31.1093C45.9845 31.2688 45.8961 31.4529 45.8497 31.6491C45.8032 31.8454 45.7997 32.0492 45.8394 32.2469C46.0821 33.4494 47.6888 32.7539 47.5773 34.6259C47.5051 35.8024 46.3313 36.7709 44.5803 36.3549C42.4294 35.8219 41.9572 33.9109 42.2785 32.0324C42.4524 30.965 42.986 29.9874 43.7922 29.2591C44.5985 28.5308 45.6298 28.0947 46.7182 28.0218C50.4496 27.6513 53.5121 29.7183 53.7744 33.0204C53.9056 34.7754 55.0008 34.4959 55.591 32.7864C56.0894 31.3174 55.9844 29.0423 55.0598 27.7488C56.0894 27.9243 59.7946 27.3653 60.6995 25.9418" fill="#F70035"/>
<path fill-rule="evenodd" clip-rule="evenodd" d="M0 25.9418C0.904984 24.5247 4.5905 23.9917 5.6332 24.1282C4.72166 22.8282 4.60362 20.5662 5.11513 19.0972C5.70534 17.3877 6.79394 17.1082 6.91854 18.8632C7.16774 22.1652 10.1975 24.2322 13.8895 23.8617C14.9787 23.7932 16.0116 23.3585 16.8177 22.6292C17.6238 21.9 18.1547 20.92 18.3227 19.8512C18.6571 17.9662 18.1784 16.0552 16.0274 15.5351C14.2765 15.1126 13.1026 16.0747 13.037 17.2642C12.919 19.1232 14.5191 18.4407 14.7749 19.6302C14.8145 19.8282 14.811 20.0324 14.7646 20.2289C14.7182 20.4255 14.6299 20.61 14.5057 20.77C14.3816 20.93 14.2243 21.0619 14.0445 21.1568C13.8647 21.2517 13.6666 21.3074 13.4633 21.3202C10.0598 21.4437 9.08919 18.3237 9.52857 16.2112C9.77444 14.8436 10.5033 13.6073 11.5846 12.7236C12.666 11.84 14.0293 11.3666 15.4306 11.3881C19.1621 11.3101 22.7099 13.7996 22.7099 18.8372C22.726 20.2719 22.3582 21.6852 21.644 22.9332C20.9298 24.1812 19.8946 25.2193 18.644 25.9418C19.8955 26.6632 20.9314 27.7011 21.6458 28.9493C22.3601 30.1975 22.7273 31.6114 22.7099 33.0463C22.7099 38.0839 19.1621 40.5734 15.4306 40.4889C14.0303 40.5107 12.6677 40.0382 11.5865 39.1559C10.5053 38.2735 9.77583 37.0388 9.52857 35.6724C9.09575 33.5598 10.0598 30.4723 13.4633 30.5568C13.6658 30.5717 13.8628 30.6287 14.0415 30.7242C14.2203 30.8197 14.3766 30.9515 14.5004 31.111C14.6242 31.2706 14.7127 31.4542 14.76 31.6499C14.8073 31.8456 14.8123 32.049 14.7749 32.2468C14.5125 33.4428 12.9124 32.7538 13.0173 34.6259C13.096 35.8024 14.2699 36.7709 16.0274 36.3549C18.1718 35.8219 18.6506 33.9109 18.3161 32.0323C18.1447 30.965 17.6128 29.9869 16.8074 29.2583C16.002 28.5297 14.971 28.0938 13.883 28.0218C10.2237 27.6513 7.16118 29.7118 6.91198 33.0203C6.78738 34.7819 5.69878 34.4959 5.10201 32.7863C4.59706 31.3173 4.70854 29.0423 5.62664 27.7553C4.5905 27.9503 0.904984 27.3653 0 25.9418Z" fill="#F70035"/>
<path d="M86.4194 10.2766C89.2459 10.2766 92.6494 10.1986 93.8823 10.1141V17.0237C92.6494 16.9327 89.2459 16.8157 86.4194 16.8157H85.4751C85.4358 18.3237 85.4358 20.3127 85.4358 22.0157V30.8363C85.4358 33.5989 85.521 36.8489 85.6456 38.1099H77.1597C77.245 36.8489 77.363 33.5989 77.363 30.8363V22.0222C77.363 20.3127 77.3237 18.3237 77.245 16.8222H76.2941C73.507 16.8222 70.1494 16.9392 68.9231 17.0302V10.1141C70.1494 10.1986 73.5136 10.2766 76.2941 10.2766H86.4194Z" fill="white"/>
<path d="M111.438 9.75012C120.245 9.75012 126.763 16.2112 126.763 24.1803C126.763 32.1494 120.245 38.6299 111.438 38.6299C102.63 38.6299 96.1448 32.1754 96.1448 24.1803C96.1448 16.1852 102.663 9.75012 111.438 9.75012ZM111.438 31.9349C115.569 31.9349 118.691 28.4768 118.691 24.1803C118.691 19.8837 115.569 16.3802 111.438 16.3802C107.306 16.3802 104.224 19.8382 104.224 24.1803C104.224 28.5223 107.293 31.9349 111.438 31.9349Z" fill="white"/>
<path d="M147.644 24.7393L138.463 32.9879C136.954 34.3334 134.58 36.7319 132.77 38.5974H130.803C130.967 36.2379 131.006 33.7159 131.006 32.0129V17.5502C131.006 15.3272 130.882 12.0707 130.803 10.2831H139.204C139.086 11.9927 139.007 15.2362 139.007 17.5502V23.0753L148.955 14.3002C150.509 13.0002 151.703 11.7912 153.703 9.75013H155.802C155.716 11.9407 155.631 15.3532 155.631 17.8297V32.2144C155.631 34.3724 155.716 36.9724 155.802 38.1099H147.473C147.552 36.9724 147.644 34.3724 147.644 32.2599V24.7393ZM144.397 4.99208C145.88 4.99208 146.778 4.14707 146.778 3.08105H152.883C152.883 6.66259 149.814 9.22362 144.397 9.22362C138.981 9.22362 136.03 6.66259 136.03 3.08105H142.109C142.109 4.14707 142.961 4.99208 144.397 4.99208Z" fill="white"/>
<path d="M171.39 10.2766C175.278 10.2766 176.472 10.2766 180.361 10.0751V16.1657C176.879 15.9642 175.114 15.9642 171.18 16.0032H169.586V21.2487H174.091C179.587 21.2487 183.036 24.5768 183.036 29.3283C183.036 34.5284 179.587 38.1099 173.514 38.1099H161.323C161.454 36.8489 161.533 33.5989 161.533 30.8363V17.5892C161.533 15.2297 161.487 12.8376 161.369 10.2766H171.39ZM169.586 32.4614H172.045C174.216 32.4614 174.996 31.0378 174.996 29.6988C175.02 29.3122 174.958 28.9252 174.817 28.5642C174.676 28.2031 174.458 27.8764 174.178 27.6063C173.898 27.3362 173.563 27.129 173.195 26.9988C172.827 26.8686 172.435 26.8185 172.045 26.8518H169.586V32.4614Z" fill="white"/>
<path d="M201.661 9.75012C210.507 9.75012 217 16.2112 217 24.1803C217 32.1494 210.507 38.6299 201.661 38.6299C192.814 38.6299 186.381 32.1754 186.381 24.1803C186.381 16.1852 192.893 9.75012 201.661 9.75012ZM201.661 31.9349C205.805 31.9349 208.92 28.4768 208.92 24.1803C208.92 19.8837 205.805 16.3802 201.661 16.3802C197.516 16.3802 194.447 19.8382 194.447 24.1803C194.447 28.5223 197.523 31.9349 201.661 31.9349Z" fill="white"/>
<path d="M236.083 31.7333C238.445 31.8013 240.74 30.955 242.483 29.3738V37.9019C240.155 38.0254 239.119 38.5974 235.348 38.5974C226.41 38.5974 220.429 32.1363 220.429 24.1348C220.429 16.1332 226.41 9.71109 235.348 9.71109C239.08 9.71109 240.103 10.3221 242.155 10.3221V19.1297C241.353 18.325 240.395 17.6883 239.34 17.2573C238.284 16.8263 237.152 16.6098 236.011 16.6207C235.01 16.6031 234.016 16.7854 233.088 17.1567C232.16 17.528 231.316 18.0807 230.608 18.7819C229.9 19.4831 229.342 20.3184 228.967 21.238C228.591 22.1577 228.406 23.1428 228.423 24.1348C228.407 25.1364 228.595 26.1311 228.974 27.0597C229.353 27.9883 229.917 28.8319 230.631 29.5406C231.345 30.2493 232.196 30.8085 233.132 31.1852C234.069 31.5619 235.072 31.7483 236.083 31.7333Z" fill="white"/>
<path d="M261.606 31.7333C263.966 31.8024 266.26 30.9558 268 29.3738V37.9019C265.665 38.0254 264.642 38.5974 260.865 38.5974C251.933 38.5974 245.952 32.1363 245.952 24.1348C245.952 16.1332 251.933 9.71109 260.865 9.71109C264.596 9.71109 265.619 10.3221 267.679 10.3221V19.1297C266.873 18.3252 265.913 17.6887 264.856 17.2578C263.798 16.8269 262.664 16.6103 261.521 16.6207C260.521 16.604 259.527 16.7869 258.6 17.1586C257.673 17.5303 256.83 18.0832 256.123 18.7843C255.415 19.4854 254.858 20.3204 254.483 21.2396C254.108 22.1588 253.923 23.1434 253.94 24.1348C253.925 25.1367 254.113 26.1315 254.493 27.0601C254.873 27.9888 255.437 28.8324 256.152 29.541C256.867 30.2495 257.718 30.8087 258.655 31.1853C259.592 31.5619 260.595 31.7482 261.606 31.7333Z" fill="white"/>
</svg>
