<svg width="36" height="36" viewBox="0 0 36 36" fill="none" xmlns="http://www.w3.org/2000/svg">
<g clip-path="url(#clip0)">
<path opacity="0.96" d="M17.025 0H18.765L18.7688 0.03375C18.21 0.04125 17.6475 0.02625 17.0888 0.045C17.0775 0.0375 17.0513 0.02625 17.04 0.0225L17.025 0Z" fill="#EC878F"/>
<path opacity="0.96" d="M0 17.3551L0.01875 17.3101C0.04125 17.4301 0.04125 17.5538 0.03 17.6738L0 17.7113V17.3551Z" fill="#EC878F"/>
<path opacity="0.96" d="M0 18.3561L0.03 18.2961C0.0375 18.4161 0.05625 18.5399 0.015 18.6599L0 18.6449V18.3561Z" fill="#EC878F"/>
<path opacity="0.1" d="M18.765 0H19.0987L19.1025 0.0375C19.0162 0.0375 18.9337 0.0375 18.8512 0.03375C18.8325 0.03375 18.7912 0.03375 18.7687 0.03375L18.765 0Z" fill="#8B6568"/>
<path d="M12.7388 0.787461C14.1338 0.352461 15.585 0.104961 17.0438 0.0224609C17.055 0.0262109 17.0813 0.0374609 17.0925 0.0449609C15.78 0.104961 14.475 0.322461 13.2075 0.663711C13.05 0.704961 12.8963 0.757461 12.7388 0.787461Z" fill="white"/>
<path d="M18.8513 0.0373535C18.9338 0.0373535 19.02 0.0373535 19.1025 0.0411035C20.4525 0.112353 21.795 0.359853 23.0925 0.731103C23.1337 0.742353 23.1712 0.757353 23.2087 0.779853L23.22 0.791103C22.6725 0.641103 22.125 0.491103 21.5662 0.386103C20.6738 0.198603 19.7625 0.0936035 18.8513 0.0373535Z" fill="white"/>
<path d="M10.6387 1.57501C11.3175 1.26751 12.015 1.00126 12.7312 0.79126C12.5775 0.85876 12.4162 0.90001 12.2587 0.95626C11.7075 1.13626 11.175 1.36501 10.6387 1.57501Z" fill="white"/>
<path d="M23.2462 0.79501L23.2762 0.79126C23.6175 0.87376 23.9437 1.00501 24.2737 1.12126C25.7662 1.67626 27.1875 2.43001 28.4812 3.36001C30.8737 5.07376 32.8425 7.38376 34.1437 10.0238C35.3287 12.4013 35.9587 15.0488 36 17.7075V18.2888C35.9625 20.2875 35.6062 22.2788 34.92 24.1575C33.8775 27.03 32.085 29.6175 29.775 31.6125C27.2325 33.8213 24.06 35.2913 20.7337 35.7938C19.9275 35.9175 19.11 35.9813 18.2925 36H17.7075C15.345 35.9588 12.9862 35.46 10.8187 34.5113C8.07372 33.3188 5.63622 31.425 3.79872 29.0625C1.89372 26.625 0.633722 23.6888 0.191222 20.625C0.104972 20.0513 0.0524723 19.4775 0.0187223 18.9C0.0149723 18.825 0.0149723 18.7463 0.0262223 18.6713C0.0337223 18.6713 0.0487223 18.6713 0.0562223 18.6713C0.0337223 18.8963 0.0674723 19.1213 0.0787223 19.3463C0.232472 21.375 0.731222 23.3813 1.55622 25.245C2.72997 27.885 4.54872 30.24 6.81372 32.0363C8.83497 33.6488 11.2125 34.815 13.7287 35.4263C17.1262 36.24 20.7637 36.0713 24.0487 34.8788C27.33 33.7125 30.2437 31.5525 32.3362 28.77C33.7687 26.8763 34.8112 24.69 35.3962 22.3913C35.955 20.1413 36.09 17.7863 35.7675 15.4875C35.445 13.0838 34.6087 10.7588 33.3562 8.68501C33.045 8.19376 32.7375 7.69501 32.3737 7.24501C32.2762 7.09501 32.1675 6.95626 32.0512 6.82876C32.0475 8.98876 32.0512 11.1488 32.0475 13.3125C31.605 13.3088 31.1587 13.3088 30.7162 13.3125C30.0075 12.3225 29.3062 11.325 28.5975 10.335C28.3087 9.93751 28.0387 9.52126 27.7312 9.13501C27.7237 10.5263 27.7425 11.9213 27.72 13.3125C27.1312 13.3125 26.5462 13.3088 25.9575 13.3125C25.9575 10.7288 25.9575 8.14501 25.9575 5.56126C26.4037 5.56876 26.8462 5.55001 27.2925 5.56876C27.3712 5.65501 27.4275 5.75251 27.4987 5.84626C28.35 7.04251 29.2012 8.24251 30.0525 9.43876C30.12 9.54001 30.1875 9.64126 30.2737 9.72751C30.285 8.34001 30.2775 6.94876 30.2775 5.56126C30.4987 5.56126 30.72 5.56501 30.9412 5.55751C30.8137 5.39626 30.6637 5.25751 30.5175 5.11501C29.0775 3.70876 27.3975 2.54626 25.5712 1.69501C24.8137 1.33876 24.03 1.05751 23.2462 0.79501Z" fill="white"/>
<path d="M9.02249 2.39611C9.54374 2.09611 10.0762 1.81486 10.6275 1.57861C10.4362 1.69111 10.2225 1.76986 10.0275 1.87486C9.68624 2.03611 9.36374 2.23861 9.02249 2.39611Z" fill="white"/>
<path d="M6.63373 4.04236C6.67123 3.98986 6.71998 3.94861 6.77998 3.92236C6.79123 4.01236 6.71248 4.06111 6.63373 4.04236Z" fill="white"/>
<path d="M6.10126 4.48882C6.12376 4.45132 6.15376 4.42507 6.19876 4.41382C6.19126 4.48132 6.16126 4.50382 6.10126 4.48882Z" fill="white"/>
<path d="M12.7462 5.44506C13.4737 5.32506 14.2462 5.43756 14.8912 5.80131C15.435 6.10506 15.8475 6.60006 16.1175 7.15506C15.6187 7.44756 15.1237 7.74006 14.6212 8.02506C14.5087 7.85631 14.4225 7.66131 14.2687 7.51881C13.9612 7.18506 13.4775 7.08756 13.0462 7.15506C12.8587 7.18881 12.6712 7.26756 12.555 7.42131C12.3937 7.62756 12.4275 7.95006 12.6187 8.12256C12.8175 8.30256 13.0725 8.40381 13.32 8.50131C13.86 8.69256 14.4225 8.82006 14.9437 9.06006C15.3187 9.23256 15.69 9.45381 15.9412 9.78756C16.23 10.1588 16.3537 10.6388 16.3425 11.1038C16.3537 11.7601 16.0575 12.4276 15.5362 12.8326C14.985 13.2713 14.2687 13.4401 13.5787 13.4626C12.8775 13.4776 12.1575 13.3501 11.5462 12.9901C11.0737 12.7088 10.6912 12.2851 10.455 11.7901C10.4137 11.7076 10.3725 11.6213 10.3575 11.5313C10.77 11.3063 11.175 11.0663 11.58 10.8301C11.685 10.7701 11.7825 10.6988 11.895 10.6576C12.03 10.9876 12.2475 11.2951 12.555 11.4826C12.9337 11.7188 13.4025 11.7638 13.8412 11.7076C14.0512 11.6776 14.2687 11.6176 14.4187 11.4601C14.6025 11.2688 14.6062 10.9351 14.4262 10.7401C14.2912 10.5901 14.1037 10.5001 13.92 10.4251C13.5262 10.2713 13.1137 10.1738 12.7125 10.0501C12.2737 9.91131 11.8462 9.73131 11.475 9.45006C11.055 9.14256 10.77 8.65506 10.7025 8.14131C10.6125 7.56006 10.7287 6.93756 11.0737 6.45756C11.4487 5.89881 12.09 5.56131 12.7462 5.44506Z" fill="white"/>
<path d="M18.1575 5.55755C18.75 5.55755 19.3462 5.55755 19.9387 5.55755C19.935 7.26755 19.9387 8.97755 19.9387 10.6838C19.9425 10.9613 20.025 11.2613 20.2387 11.4488C20.5087 11.6813 20.8837 11.7338 21.2287 11.7225C21.54 11.7076 21.8775 11.64 22.0987 11.4C22.2862 11.2125 22.35 10.9388 22.3575 10.6838C22.3575 8.9738 22.3575 7.26005 22.3575 5.55005C22.95 5.5538 23.5425 5.55005 24.1387 5.5538C24.135 7.12505 24.1387 8.6963 24.1387 10.2675C24.135 10.6425 24.1612 11.025 24.0787 11.3925C23.9737 11.9138 23.7 12.4013 23.295 12.7425C22.74 13.2225 21.9937 13.4288 21.27 13.4513C20.58 13.4701 19.8712 13.3275 19.2862 12.9525C18.7725 12.6263 18.3862 12.1013 18.2475 11.505C18.135 11.1 18.1687 10.68 18.165 10.2675C18.1575 8.7038 18.1575 7.1288 18.1575 5.55755Z" fill="white"/>
<path d="M4.48874 6.11254C4.55624 6.03379 4.61999 5.95879 4.69124 5.88379C4.63874 5.97004 4.56749 6.04879 4.48874 6.11254Z" fill="white"/>
<path d="M4.37997 6.23617C4.39122 6.19117 4.41747 6.16117 4.45872 6.13867C4.46997 6.20242 4.43997 6.23242 4.37997 6.23617Z" fill="white"/>
<path d="M3.92249 6.78745C4.06124 6.60745 4.20374 6.4312 4.35749 6.26245C4.22249 6.44245 4.08374 6.6262 3.92249 6.78745Z" fill="white"/>
<path d="M2.50876 8.83131C2.92126 8.12256 3.38626 7.44756 3.90001 6.81006C3.85126 6.88881 3.79876 6.96381 3.73876 7.03506C3.29251 7.60881 2.90626 8.22756 2.50876 8.83131Z" fill="white"/>
<path d="M1.34253 11.1862C1.66503 10.3725 2.06253 9.58871 2.50878 8.83496C2.46753 8.93246 2.41503 9.02621 2.36253 9.11996C2.01753 9.73121 1.69878 10.3537 1.43253 11.0062C1.40628 11.0662 1.37628 11.1262 1.34253 11.1862Z" fill="white"/>
<path d="M0.292488 14.7599C0.517488 13.5411 0.854988 12.3374 1.33874 11.1936C1.23374 11.5461 1.07624 11.8799 0.967488 12.2286C0.419988 13.8299 0.123738 15.5174 0.0412378 17.2086C0.0374878 17.2274 0.0262378 17.2686 0.0187378 17.2874C0.0374878 16.4399 0.146238 15.5924 0.292488 14.7599Z" fill="white"/>
<path d="M21.3225 15.66C21.7163 15.2587 22.245 15.0037 22.7963 14.9137C23.37 14.8237 23.97 14.8762 24.5175 15.0787C25.2338 15.3487 25.8188 15.9225 26.1413 16.6087C26.085 16.6875 25.98 16.7437 25.8788 16.7362C25.2413 16.7325 24.6038 16.7437 23.9663 16.7287C23.5388 16.5637 22.9838 16.5112 22.62 16.845C21.9788 16.9762 21.345 17.13 20.715 17.31C20.6813 16.71 20.9025 16.095 21.3225 15.66Z" fill="white"/>
<path d="M10.7663 15.0262C11.79 15.0262 12.8138 15.0262 13.8375 15.0262C14.3363 15.0225 14.8388 15.1537 15.2588 15.42C15.855 15.78 16.2938 16.3875 16.455 17.0662C16.575 17.58 16.5488 18.1312 16.3388 18.6187C16.2938 18.7087 16.2675 18.8325 16.1588 18.8625C15.21 19.2825 14.295 19.7737 13.425 20.3437C13.4138 20.3175 13.3913 20.265 13.38 20.2387C13.0988 20.2275 12.8213 20.2425 12.54 20.2312C12.525 20.4787 12.54 20.7262 12.5325 20.9737C12.4763 21.0562 12.3825 21.1012 12.3113 21.165C11.8088 21.5775 11.3288 22.0275 10.92 22.5375C10.8863 22.5825 10.8563 22.6312 10.8338 22.68C11.355 22.2375 11.9438 21.8887 12.5325 21.5512C12.5363 21.96 12.5325 22.3725 12.5325 22.7812C11.94 22.7812 11.3513 22.7812 10.7588 22.7812C10.7625 20.1975 10.7588 17.61 10.7663 15.0262ZM12.5363 16.6987C12.5363 17.355 12.54 18.0112 12.5363 18.6675C12.78 18.7087 13.0275 18.6487 13.275 18.675C13.6125 18.66 13.98 18.7462 14.2838 18.5587C14.745 18.285 14.8688 17.6325 14.6213 17.1787C14.475 16.9087 14.19 16.6912 13.8713 16.7025C13.4288 16.6987 12.9825 16.6987 12.5363 16.6987Z" fill="white"/>
<path d="M17.6813 18.2549C17.6775 17.1786 17.6738 16.1024 17.685 15.0261C18.2738 15.0299 18.8588 15.0299 19.4475 15.0261C19.4625 15.9074 19.4475 16.7886 19.455 17.6699C18.8588 17.8499 18.2625 18.0336 17.6813 18.2549Z" fill="white"/>
<path d="M27.315 16.7437C27.3075 16.17 27.3075 15.5962 27.315 15.0225C28.9125 15.0262 30.5138 15.0262 32.1113 15.0225C32.1188 15.5962 32.115 16.1662 32.115 16.74C30.5175 16.74 28.9163 16.7362 27.315 16.7437Z" fill="white"/>
<path d="M0 17.7112L0.03 17.6699C0.0225 17.8762 0.03 18.0862 0.02625 18.2924L0 18.3562V17.7112Z" fill="white"/>
<path d="M27.3112 18.0188C28.8262 18.0188 30.3412 18.0188 31.8562 18.0188C31.8525 18.5775 31.86 19.1401 31.8525 19.6988C30.93 19.7026 30.0037 19.6988 29.0812 19.6988C29.0812 20.1526 29.0812 20.6063 29.0812 21.0601C30.1012 21.0601 31.125 21.0601 32.145 21.0601C32.205 21.1201 32.1675 21.2213 32.1712 21.2963C32.19 21.6451 32.1525 21.9938 32.1825 22.3463C32.1825 22.4888 32.1637 22.6313 32.1712 22.7738C30.5512 22.7851 28.935 22.7738 27.315 22.7813C27.3075 21.1951 27.315 19.6051 27.3112 18.0188Z" fill="white"/>
<path d="M21.1125 18.5138C21.9075 18.3451 22.7063 18.1951 23.5088 18.0751C23.64 18.0451 23.76 18.1238 23.8838 18.1501C24.4988 18.3413 25.1438 18.5176 25.6463 18.9338C26.04 19.2413 26.2988 19.7138 26.3475 20.2088C26.4338 20.8201 26.2913 21.4763 25.9013 21.9638C25.4663 22.5076 24.7875 22.8038 24.1088 22.8901C23.3363 22.9876 22.515 22.9313 21.8063 22.5863C21.27 22.3276 20.82 21.9001 20.5425 21.3751C20.4825 21.2551 20.4075 21.1388 20.3963 21.0001C20.8838 20.7301 21.36 20.4376 21.8438 20.1638C21.8663 20.1563 21.9075 20.1451 21.9263 20.1376C22.0913 20.5501 22.4025 20.9213 22.8263 21.0751C23.2313 21.2213 23.685 21.2363 24.105 21.1238C24.3075 21.0713 24.4988 20.9326 24.5663 20.7301C24.5963 20.5838 24.5963 20.4188 24.5138 20.2876C24.4125 20.1263 24.2363 20.0288 24.0675 19.9501C23.5425 19.7138 22.9725 19.6088 22.4325 19.4138C22.0313 19.2713 21.645 19.0688 21.33 18.7801C21.255 18.7013 21.165 18.6226 21.1125 18.5138Z" fill="white"/>
<path d="M17.6813 19.41C18.27 19.2413 18.8588 19.0725 19.4475 18.915C19.4513 20.205 19.455 21.495 19.4475 22.785C18.8588 22.7813 18.27 22.7813 17.6813 22.785C17.6738 21.66 17.67 20.535 17.6813 19.41Z" fill="white"/>
<path d="M13.77 20.9174C14.265 20.6737 14.775 20.4562 15.2888 20.2537C15.675 20.9099 16.05 21.5737 16.4363 22.2299C16.5375 22.4137 16.6538 22.5862 16.7363 22.7774C16.1063 22.7887 15.4725 22.7774 14.8425 22.7849C14.4788 22.1624 14.1188 21.5437 13.77 20.9174Z" fill="white"/>
<path d="M10.9125 24.4499C11.175 24.2399 11.6325 24.3449 11.745 24.6749C11.7075 24.6937 11.67 24.7124 11.6362 24.7312C11.5537 24.4837 11.2162 24.3787 11.0062 24.5362C10.8712 24.6299 10.86 24.8587 11.0062 24.9449C11.2162 25.0724 11.4862 25.0874 11.6775 25.2524C11.8575 25.4099 11.8012 25.7287 11.6025 25.8449C11.31 26.0174 10.8525 25.9312 10.71 25.5974C10.6987 25.5374 10.7775 25.5262 10.8112 25.4999C10.8937 25.7999 11.2875 25.8899 11.5312 25.7399C11.67 25.6537 11.7 25.4249 11.5612 25.3237C11.355 25.1662 11.07 25.1737 10.8712 25.0049C10.7137 24.8699 10.7475 24.5812 10.9125 24.4499Z" fill="white"/>
<path d="M31.2187 24.3636C31.5262 24.2924 31.875 24.4161 32.055 24.6824C32.2912 25.0161 32.2237 25.5336 31.8862 25.7774C31.59 26.0061 31.1287 25.9874 30.8587 25.7286C30.5887 25.4886 30.525 25.0574 30.705 24.7499C30.8137 24.5549 31.005 24.4086 31.2187 24.3636ZM31.2037 24.4949C30.8512 24.5924 30.6412 25.0086 30.765 25.3536C30.8625 25.6911 31.2562 25.8974 31.59 25.7886C31.9275 25.6986 32.1525 25.3086 32.0512 24.9749C31.9687 24.6111 31.5562 24.3749 31.2037 24.4949Z" fill="white"/>
<path d="M14.6475 24.3826C15.0187 24.3676 15.3937 24.3676 15.765 24.3826C15.7762 24.4463 15.7462 24.4913 15.6787 24.4913C15.5437 24.4988 15.405 24.4951 15.2662 24.4838C15.2512 24.9601 15.27 25.4363 15.2587 25.9126C15.2175 25.9088 15.1725 25.9051 15.1312 25.9013C15.135 25.4326 15.1312 24.9638 15.135 24.4951C14.9737 24.4951 14.8162 24.4951 14.655 24.4951C14.655 24.4576 14.6475 24.4201 14.6475 24.3826Z" fill="white"/>
<path d="M18.7425 24.3788C18.7762 24.3788 18.84 24.3751 18.8737 24.3713C18.8737 24.7088 18.8737 25.0501 18.8737 25.3876C18.87 25.5038 18.9075 25.6276 18.9975 25.7063C19.23 25.9126 19.71 25.8226 19.7512 25.4776C19.7662 25.1101 19.755 24.7426 19.7587 24.3713C19.7925 24.3713 19.8562 24.3713 19.8862 24.3713C19.8862 24.7088 19.8862 25.0501 19.8862 25.3876C19.89 25.5713 19.8075 25.7663 19.6387 25.8563C19.4287 25.9726 19.1475 25.9651 18.9487 25.8301C18.81 25.7326 18.7425 25.5563 18.7462 25.3913C18.7425 25.0538 18.7425 24.7163 18.7425 24.3788Z" fill="white"/>
<path d="M23.0137 24.3824C23.2162 24.3674 23.4187 24.3749 23.625 24.3749C23.8575 24.3712 24.0825 24.5024 24.2062 24.6974C24.3375 24.8999 24.3637 25.1587 24.2962 25.3874C24.2175 25.6687 23.9587 25.9012 23.6625 25.9049C23.445 25.9049 23.2312 25.9124 23.0137 25.9012C23.0175 25.3949 23.0175 24.8887 23.0137 24.3824ZM23.1487 24.4949C23.1487 24.9262 23.1525 25.3537 23.145 25.7849C23.415 25.7737 23.7225 25.8562 23.955 25.6799C24.2962 25.4249 24.2887 24.8324 23.9362 24.5887C23.7037 24.4274 23.4075 24.5174 23.1487 24.4949Z" fill="white"/>
<path d="M27.4013 24.3713C27.435 24.3751 27.5025 24.3788 27.5363 24.3788C27.5363 24.8851 27.5288 25.3876 27.54 25.8938C27.4913 25.9013 27.4425 25.9013 27.3975 25.8938C27.405 25.3876 27.3975 24.8813 27.4013 24.3713Z" fill="white"/>
<path d="M17.0925 0.0449414C17.6513 0.0261914 18.21 0.0449414 18.7725 0.0336914C18.7913 0.0336914 18.8325 0.0336914 18.855 0.0336914C19.7663 0.0936914 20.6775 0.194941 21.5738 0.378691C22.1325 0.487441 22.68 0.633691 23.2275 0.783691L23.25 0.791191C24.0375 1.05369 24.8213 1.33494 25.5713 1.68744C27.3938 2.53869 29.0775 3.70119 30.5175 5.10744C30.6638 5.24994 30.8175 5.38869 30.9413 5.54994C30.72 5.55369 30.4988 5.54994 30.2775 5.55369C30.2738 6.94119 30.285 8.33244 30.2738 9.71994C30.1913 9.63369 30.12 9.53244 30.0525 9.43119C29.2013 8.23494 28.35 7.03494 27.4988 5.83869C27.4313 5.74494 27.375 5.64369 27.2925 5.56119C26.85 5.54244 26.4038 5.56119 25.9575 5.55369C25.9575 8.13744 25.9575 10.7212 25.9575 13.3049C26.5463 13.3049 27.135 13.3049 27.72 13.3049C27.7388 11.9137 27.72 10.5224 27.7313 9.12744C28.0388 9.51369 28.305 9.92994 28.5975 10.3274C29.3063 11.3174 30.0075 12.3149 30.7163 13.3049C31.1588 13.3012 31.605 13.3012 32.0475 13.3049C32.0513 11.1449 32.0475 8.98494 32.0513 6.82119C32.1675 6.95244 32.2763 7.09119 32.3738 7.23744C32.7375 7.69119 33.045 8.18619 33.3563 8.67744C34.6088 10.7512 35.445 13.0799 35.7675 15.4799C36.09 17.7749 35.955 20.1337 35.3963 22.3837C34.8113 24.6862 33.7688 26.8687 32.3363 28.7624C30.2475 31.5449 27.33 33.7049 24.0488 34.8712C20.76 36.0637 17.1263 36.2324 13.7288 35.4187C11.2163 34.8074 8.83876 33.6449 6.81376 32.0287C4.54501 30.2399 2.73001 27.8849 1.55626 25.2449C0.731261 23.3812 0.232511 21.3749 0.078761 19.3424C0.067511 19.1174 0.033761 18.8924 0.056261 18.6674C0.048761 18.6674 0.033761 18.6674 0.026261 18.6674L0.011261 18.6562C0.052511 18.5399 0.037511 18.4162 0.026261 18.2924C0.030011 18.0862 0.022511 17.8762 0.030011 17.6699C0.041261 17.5499 0.041261 17.4262 0.018761 17.3062C0.018761 17.3024 0.018761 17.2912 0.018761 17.2837C0.022511 17.2649 0.033761 17.2237 0.041261 17.2049C0.123761 15.5137 0.420011 13.8299 0.967511 12.2249C1.08001 11.8762 1.23376 11.5387 1.33876 11.1899V11.1862C1.37251 11.1262 1.40626 11.0662 1.43251 11.0024C1.69501 10.3537 2.01751 9.72744 2.36251 9.11619C2.41501 9.02619 2.46751 8.93244 2.50876 8.83119L2.51251 8.82744C2.91001 8.21994 3.29251 7.60119 3.74626 7.03494C3.80251 6.96369 3.85876 6.88869 3.90751 6.80994C3.91126 6.80244 3.92251 6.79119 3.93001 6.78369C4.09126 6.62244 4.23001 6.44244 4.36501 6.25869C4.36876 6.25119 4.38001 6.23994 4.38751 6.23244C4.44751 6.22869 4.47376 6.19869 4.46626 6.13494C4.47376 6.12744 4.48876 6.11244 4.49626 6.10494C4.57501 6.04119 4.64626 5.96244 4.69876 5.87619C5.13376 5.38119 5.61376 4.92369 6.10876 4.48494C6.16876 4.49994 6.20251 4.47369 6.20626 4.40994C6.34501 4.27494 6.49126 4.15494 6.64501 4.03869C6.72376 4.05369 6.80626 4.00869 6.79126 3.91869C7.49626 3.35244 8.24626 2.83869 9.03376 2.39244C9.37501 2.23494 9.69751 2.03244 10.0388 1.87119C10.2375 1.76619 10.4475 1.68744 10.6388 1.57494L10.65 1.57119C11.19 1.36494 11.7188 1.13244 12.2663 0.952441C12.4238 0.896191 12.585 0.854941 12.7388 0.787441L12.7463 0.783691C12.9038 0.753691 13.0575 0.701191 13.2113 0.659941C14.475 0.322441 15.7763 0.104941 17.0925 0.0449414ZM12.7463 5.44494C12.09 5.56119 11.4488 5.89494 11.07 6.45744C10.725 6.94119 10.6088 7.56369 10.6988 8.14119C10.77 8.65869 11.055 9.14244 11.4713 9.44994C11.8388 9.72744 12.27 9.90744 12.7088 10.0499C13.11 10.1737 13.5263 10.2674 13.9163 10.4249C14.1038 10.4999 14.2875 10.5899 14.4225 10.7399C14.6063 10.9312 14.6025 11.2687 14.415 11.4599C14.265 11.6174 14.0438 11.6774 13.8375 11.7074C13.4025 11.7637 12.9338 11.7187 12.5513 11.4824C12.24 11.2949 12.0263 10.9874 11.8913 10.6574C11.7788 10.6987 11.6813 10.7699 11.5763 10.8299C11.1713 11.0662 10.7663 11.3024 10.3538 11.5312C10.3688 11.6249 10.41 11.7074 10.4513 11.7899C10.6875 12.2849 11.07 12.7087 11.5425 12.9899C12.1538 13.3499 12.8738 13.4774 13.575 13.4624C14.265 13.4399 14.9813 13.2712 15.5325 12.8324C16.0538 12.4237 16.3463 11.7599 16.3388 11.1037C16.35 10.6387 16.2263 10.1587 15.9375 9.78744C15.6863 9.45369 15.3188 9.22869 14.94 9.05994C14.4188 8.81994 13.8563 8.69619 13.3163 8.50119C13.0688 8.40369 12.8138 8.30619 12.615 8.12244C12.4238 7.94994 12.39 7.62369 12.5513 7.42119C12.6675 7.26744 12.855 7.18494 13.0425 7.15494C13.4738 7.09119 13.9613 7.18869 14.265 7.51869C14.4188 7.66119 14.505 7.85619 14.6175 8.02494C15.12 7.73994 15.615 7.44744 16.1138 7.15494C15.8438 6.59994 15.4275 6.10494 14.8875 5.80119C14.2463 5.43744 13.4738 5.32494 12.7463 5.44494ZM18.1575 5.55744C18.1575 7.12869 18.1575 8.70369 18.1575 10.2749C18.1613 10.6874 18.1275 11.1112 18.24 11.5124C18.3788 12.1087 18.765 12.6337 19.2788 12.9599C19.8638 13.3349 20.5725 13.4774 21.2625 13.4587C21.9863 13.4362 22.7288 13.2299 23.2875 12.7499C23.6925 12.4049 23.97 11.9174 24.0713 11.3999C24.1538 11.0287 24.1275 10.6499 24.1313 10.2749C24.1313 8.70369 24.1313 7.13244 24.1313 5.56119C23.5388 5.55744 22.9425 5.56119 22.35 5.55744C22.3463 7.26744 22.35 8.98119 22.35 10.6912C22.3425 10.9462 22.2788 11.2199 22.0913 11.4074C21.8738 11.6474 21.5325 11.7149 21.2213 11.7299C20.8763 11.7374 20.5013 11.6887 20.2313 11.4562C20.0175 11.2649 19.935 10.9687 19.9313 10.6912C19.935 8.98119 19.9313 7.27119 19.9313 5.56494C19.3425 5.55744 18.75 5.55744 18.1575 5.55744ZM21.3225 15.6599C20.8988 16.0949 20.6813 16.7099 20.7113 17.3137C21.3413 17.1337 21.975 16.9799 22.6163 16.8487C22.98 16.5149 23.535 16.5674 23.9625 16.7324C24.6 16.7437 25.2375 16.7324 25.875 16.7399C25.9763 16.7474 26.0813 16.6912 26.1375 16.6124C25.815 15.9224 25.23 15.3524 24.5138 15.0824C23.9663 14.8762 23.3663 14.8237 22.7925 14.9174C22.245 15.0037 21.7163 15.2587 21.3225 15.6599ZM10.7663 15.0262C10.7588 17.6099 10.7625 20.1974 10.7625 22.7812C11.355 22.7812 11.9438 22.7812 12.5363 22.7812C12.5363 22.3687 12.5363 21.9599 12.5363 21.5512C11.9475 21.8887 11.3588 22.2374 10.8375 22.6799C10.8638 22.6312 10.89 22.5787 10.9238 22.5374C11.3325 22.0274 11.8088 21.5774 12.315 21.1649C12.3863 21.1012 12.48 21.0524 12.5363 20.9737C12.5438 20.7262 12.5288 20.4787 12.5438 20.2312C12.825 20.2424 13.1063 20.2274 13.3838 20.2387C13.395 20.2649 13.4175 20.3174 13.4288 20.3437C14.2988 19.7774 15.2138 19.2824 16.1625 18.8624C16.2713 18.8287 16.2975 18.7087 16.3425 18.6187C16.5525 18.1312 16.5788 17.5799 16.4588 17.0662C16.2975 16.3874 15.8588 15.7837 15.2625 15.4199C14.8388 15.1537 14.34 15.0187 13.8413 15.0262C12.8138 15.0262 11.79 15.0262 10.7663 15.0262ZM17.6813 18.2549C18.2663 18.0374 18.8588 17.8537 19.455 17.6699C19.4475 16.7887 19.4625 15.9074 19.4475 15.0262C18.8588 15.0299 18.27 15.0299 17.685 15.0262C17.67 16.0987 17.6738 17.1749 17.6813 18.2549ZM27.315 16.7437C28.9163 16.7399 30.5175 16.7399 32.115 16.7437C32.115 16.1699 32.1225 15.5999 32.1113 15.0262C30.5138 15.0262 28.9125 15.0299 27.315 15.0262C27.3075 15.5962 27.3113 16.1699 27.315 16.7437ZM27.3113 18.0187C27.315 19.6087 27.3075 21.1949 27.315 22.7849C28.935 22.7774 30.5513 22.7887 32.1713 22.7774C32.16 22.6349 32.1788 22.4924 32.1825 22.3499C32.1563 22.0012 32.1938 21.6524 32.1713 21.2999C32.1675 21.2249 32.205 21.1237 32.145 21.0637C31.125 21.0599 30.1013 21.0637 29.0813 21.0637C29.0813 20.6099 29.0813 20.1562 29.0813 19.7024C30.0038 19.6987 30.93 19.7024 31.8525 19.7024C31.86 19.1437 31.8525 18.5812 31.8563 18.0224C30.3413 18.0149 28.8263 18.0187 27.3113 18.0187ZM21.1125 18.5137C21.165 18.6224 21.255 18.7012 21.3375 18.7837C21.6525 19.0762 22.0388 19.2749 22.44 19.4174C22.98 19.6124 23.55 19.7174 24.075 19.9537C24.2438 20.0324 24.4163 20.1299 24.5213 20.2912C24.6038 20.4224 24.6038 20.5874 24.5738 20.7337C24.5025 20.9362 24.315 21.0749 24.1125 21.1274C23.6963 21.2362 23.2425 21.2249 22.8338 21.0787C22.41 20.9212 22.0988 20.5499 21.9338 20.1412C21.915 20.1487 21.87 20.1599 21.8513 20.1674C21.3638 20.4374 20.8875 20.7299 20.4 20.9999C20.4113 21.1349 20.4863 21.2549 20.5463 21.3749C20.8238 21.9037 21.2738 22.3312 21.81 22.5862C22.5188 22.9312 23.34 22.9874 24.1125 22.8899C24.7913 22.7999 25.47 22.5074 25.905 21.9637C26.295 21.4762 26.4375 20.8199 26.3513 20.2087C26.3025 19.7099 26.0438 19.2412 25.65 18.9337C25.1438 18.5174 24.4988 18.3412 23.8875 18.1499C23.7638 18.1199 23.6438 18.0449 23.5125 18.0749C22.7063 18.1949 21.9075 18.3449 21.1125 18.5137ZM17.6813 19.4099C17.67 20.5349 17.6738 21.6599 17.6813 22.7849C18.27 22.7812 18.8588 22.7812 19.4475 22.7849C19.455 21.4949 19.4513 20.2049 19.4475 18.9149C18.8588 19.0687 18.27 19.2374 17.6813 19.4099ZM13.77 20.9174C14.1188 21.5437 14.4825 22.1624 14.8425 22.7812C15.4725 22.7737 16.1063 22.7849 16.7363 22.7737C16.6538 22.5824 16.5338 22.4099 16.4363 22.2262C16.05 21.5699 15.675 20.9062 15.2888 20.2499C14.7713 20.4562 14.265 20.6774 13.77 20.9174ZM10.9125 24.4499C10.7475 24.5812 10.7138 24.8662 10.8788 25.0087C11.0775 25.1774 11.3625 25.1699 11.5688 25.3274C11.7075 25.4287 11.6738 25.6574 11.5388 25.7437C11.295 25.8937 10.8975 25.8037 10.8188 25.5037C10.785 25.5337 10.7063 25.5449 10.7175 25.6012C10.8563 25.9349 11.3138 26.0212 11.61 25.8487C11.8088 25.7324 11.8613 25.4137 11.685 25.2562C11.4938 25.0874 11.2238 25.0762 11.0138 24.9487C10.8675 24.8624 10.8788 24.6337 11.0138 24.5399C11.22 24.3787 11.5575 24.4837 11.6438 24.7349C11.6813 24.7162 11.715 24.6974 11.7525 24.6787C11.6325 24.3487 11.175 24.2399 10.9125 24.4499ZM31.2188 24.3637C31.0013 24.4124 30.81 24.5549 30.7013 24.7499C30.5213 25.0612 30.585 25.4924 30.855 25.7287C31.1288 25.9874 31.5863 26.0062 31.8825 25.7774C32.22 25.5337 32.2875 25.0162 32.0513 24.6824C31.875 24.4162 31.53 24.2924 31.2188 24.3637ZM14.6475 24.3824C14.6475 24.4199 14.6475 24.4574 14.6475 24.4949C14.8088 24.4949 14.9775 24.4949 15.135 24.4949C15.1313 24.9637 15.1388 25.4324 15.1313 25.9012C15.1725 25.9049 15.2138 25.9087 15.2588 25.9124C15.27 25.4362 15.2663 24.4949 15.2663 24.4949H15.7613V24.3862C15.765 24.3824 15.0188 24.3787 14.6475 24.3824ZM18.7425 24.3787C18.7425 24.7162 18.7425 25.0537 18.7425 25.3912C18.7388 25.5562 18.8063 25.7324 18.945 25.8299C19.1438 25.9649 19.425 25.9724 19.635 25.8562C19.8038 25.7699 19.8863 25.5712 19.8825 25.3874C19.8825 25.0499 19.8825 24.7087 19.8825 24.3712C19.8488 24.3712 19.785 24.3712 19.755 24.3712C19.7513 24.7387 19.7625 25.1099 19.7475 25.4774C19.7063 25.8224 19.23 25.9124 18.9938 25.7062C18.9038 25.6274 18.8663 25.5037 18.87 25.3874C18.87 25.0499 18.87 24.7087 18.87 24.3712C18.84 24.3749 18.7763 24.3787 18.7425 24.3787ZM23.0138 24.3824C23.0175 24.8887 23.0175 25.3949 23.0138 25.9012C23.2313 25.9124 23.445 25.9087 23.6625 25.9049C23.9588 25.9012 24.2175 25.6649 24.2963 25.3874C24.36 25.1587 24.3338 24.8962 24.2063 24.6974C24.0825 24.5024 23.8575 24.3712 23.625 24.3749C23.4188 24.3749 23.2163 24.3674 23.0138 24.3824ZM27.4013 24.3712C27.3975 24.8774 27.4088 25.3874 27.3975 25.8937C27.4463 25.9012 27.495 25.9012 27.54 25.8937C27.5288 25.3874 27.5363 24.8849 27.5363 24.3787C27.5025 24.3787 27.435 24.3749 27.4013 24.3712Z" fill="#DF1E2E"/>
<path d="M12.5363 16.6987C12.9825 16.6987 13.4288 16.6987 13.875 16.6987C14.1938 16.6874 14.4788 16.9049 14.625 17.1749C14.8725 17.6287 14.745 18.2849 14.2875 18.5549C13.9838 18.7424 13.6125 18.6599 13.2788 18.6711C13.0313 18.6449 12.7838 18.7049 12.54 18.6636C12.54 18.0112 12.5363 17.3549 12.5363 16.6987Z" fill="#DF1E2E"/>
<path d="M23.1487 24.495C23.4112 24.5175 23.7037 24.4313 23.9362 24.5888C24.2925 24.8288 24.3 25.4213 23.955 25.68C23.7225 25.8525 23.415 25.7738 23.145 25.785C23.1525 25.3538 23.145 24.9225 23.1487 24.495Z" fill="#DF1E2E"/>
<path d="M31.2038 24.4949C31.5563 24.3749 31.9688 24.6112 32.0513 24.9712C32.1525 25.3049 31.9275 25.6949 31.59 25.7849C31.2563 25.8937 30.8625 25.6874 30.765 25.3499C30.6375 25.0124 30.8513 24.5924 31.2038 24.4949Z" fill="#DF1E2E"/>
</g>
<defs>
<clipPath id="clip0">
<rect width="36" height="36" fill="white"/>
</clipPath>
</defs>
</svg>
