<svg width="24" height="24" viewBox="0 0 24 24" fill="none" xmlns="http://www.w3.org/2000/svg">
<path d="M12 24C18.6274 24 24 18.6274 24 12C24 5.37258 18.6274 0 12 0C5.37258 0 0 5.37258 0 12C0 18.6274 5.37258 24 12 24Z" fill="#16428D"/>
<path d="M18.8661 16.7023H5.0978C5.02799 16.7102 4.95741 16.6973 4.8949 16.6652C4.8324 16.6331 4.78077 16.5833 4.74649 16.522C4.71221 16.4607 4.69682 16.3906 4.70223 16.3205C4.70765 16.2505 4.73364 16.1836 4.77694 16.1283V7.65414C4.7718 7.61628 4.7718 7.57791 4.77694 7.54006C4.79244 7.49717 4.81537 7.45735 4.84468 7.42241C4.87465 7.38507 4.91235 7.35466 4.95519 7.33328C4.99975 7.31112 5.04817 7.2978 5.0978 7.29407H18.8946C18.9442 7.2978 18.9926 7.31112 19.0372 7.33328C19.0809 7.35488 19.1197 7.38521 19.1513 7.42241C19.1782 7.45382 19.1988 7.49014 19.2119 7.52936C19.229 7.56869 19.2375 7.61124 19.2368 7.65414V16.3529C19.2349 16.3982 19.2253 16.4428 19.2083 16.4848C19.1892 16.5292 19.1613 16.5692 19.1263 16.6024C19.0953 16.6325 19.059 16.6567 19.0194 16.6737C18.971 16.6945 18.9186 16.7042 18.8661 16.7023ZM5.9035 15.9893H18.0247L13.9605 11.8217L12.2137 13.1479C12.1516 13.195 12.0759 13.2205 11.998 13.2205C11.9201 13.2205 11.8443 13.195 11.7823 13.1479L9.99976 11.7896L5.9035 15.9893ZM14.5345 11.3868L18.5096 15.4688V8.37072L14.5345 11.3868ZM5.48995 8.37072V15.3939L9.41152 11.3547L5.48995 8.37072ZM6.20296 8.01421L11.9998 12.4171L17.8037 8.00708L6.20296 8.01421Z" fill="white"/>
</svg>
