<svg width="24" height="24" viewBox="0 0 24 24" fill="none" xmlns="http://www.w3.org/2000/svg">
<path d="M12 24C18.6274 24 24 18.6274 24 12C24 5.37258 18.6274 0 12 0C5.37258 0 0 5.37258 0 12C0 18.6274 5.37258 24 12 24Z" fill="#16428D"/>
<path d="M16.8523 19.2905H16.8309C14.3603 19.1586 11.4833 17.6791 9.15174 15.3405C6.82019 13.0018 5.34781 10.1283 5.20165 7.65775C5.19859 7.59852 5.21035 7.53946 5.23587 7.48593C5.26139 7.43239 5.29987 7.38607 5.34781 7.35116L8.01092 5.4082C8.14286 5.3186 8.30331 5.28104 8.46131 5.30277C8.61931 5.32449 8.76367 5.40396 8.86653 5.52584L10.8238 8.02139C10.9244 8.16175 10.9761 8.33129 10.9709 8.50392C10.9658 8.67655 10.904 8.84271 10.7952 8.97682L9.26938 10.7237L9.32642 10.82C9.87826 11.6937 10.5199 12.5074 11.2409 13.2478C11.9826 13.9672 12.7961 14.6087 13.6687 15.1622L13.7649 15.2228L15.5047 13.6934C15.6406 13.587 15.807 13.5268 15.9795 13.5217C16.152 13.5166 16.3217 13.5667 16.4637 13.6649L18.9592 15.6257C19.0847 15.7261 19.1668 15.8708 19.1887 16.03C19.2106 16.1892 19.1706 16.3507 19.0769 16.4813L17.1375 19.1444C17.1046 19.1893 17.0617 19.2259 17.0122 19.2513C16.9627 19.2767 16.9079 19.2901 16.8523 19.2905ZM5.92536 7.81105C6.11787 10.0392 7.5332 12.7094 9.65441 14.8342C11.7756 16.959 14.4494 18.3708 16.6776 18.5633L18.4601 16.1319L16.0287 14.2282C16.0287 14.2282 15.986 14.2282 15.9681 14.2282L14.043 15.918C13.9858 15.968 13.9142 15.9984 13.8385 16.0048C13.7628 16.0112 13.6871 15.9933 13.6223 15.9537L13.3015 15.754C12.3804 15.1737 11.5236 14.4973 10.7453 13.7362C9.98606 12.9563 9.30983 12.0996 8.72749 11.18L8.52785 10.8627C8.48737 10.7976 8.46897 10.7211 8.4754 10.6447C8.48182 10.5683 8.51272 10.496 8.5635 10.4385L10.2676 8.49911C10.2691 8.48012 10.2691 8.46105 10.2676 8.44206L8.36742 6.02139L5.92536 7.81105Z" fill="white"/>
</svg>
