<svg width="32" height="32" viewBox="0 0 32 32" fill="none" xmlns="http://www.w3.org/2000/svg">
<circle cx="16" cy="16" r="16" fill="#1558A3"/>
<path d="M8.73513 20.928C8.98046 20.9813 9.19913 21.0507 9.39113 21.136C9.58313 21.2213 9.76979 21.3067 9.95113 21.392V22H5.02313V21.392C5.25779 21.264 5.48179 21.168 5.69513 21.104C5.90846 21.0293 6.12179 20.9707 6.33513 20.928V11.872C5.80179 11.7547 5.36446 11.6 5.02313 11.408V10.8H6.71913C6.93246 10.8 7.17246 10.7947 7.43913 10.784C7.71646 10.7733 8.00446 10.7627 8.30313 10.752C8.60179 10.7307 8.90579 10.7147 9.21513 10.704C9.52446 10.6827 9.82313 10.672 10.1111 10.672C10.6978 10.672 11.2365 10.7413 11.7271 10.88C12.2285 11.008 12.6551 11.2053 13.0071 11.472C13.3698 11.7387 13.6471 12.0747 13.8391 12.48C14.0418 12.8747 14.1431 13.3387 14.1431 13.872C14.1431 14.64 13.9565 15.2693 13.5831 15.76C13.2098 16.2507 12.6978 16.6187 12.0471 16.864C12.4738 17.536 12.9271 18.224 13.4071 18.928C13.8871 19.6213 14.3938 20.2933 14.9271 20.944L15.6951 21.456V22H13.0231L12.3351 21.472C11.8445 20.8853 11.4071 20.208 11.0231 19.44C10.6498 18.6613 10.3191 17.8987 10.0311 17.152H8.73513V20.928ZM9.53513 11.712C9.20446 11.712 8.93779 11.744 8.73513 11.808V16.272H9.67913C10.2231 16.272 10.6871 16.08 11.0711 15.696C11.4551 15.3013 11.6471 14.72 11.6471 13.952C11.6471 13.5573 11.5938 13.2213 11.4871 12.944C11.3805 12.656 11.2311 12.4213 11.0391 12.24C10.8471 12.0587 10.6231 11.9253 10.3671 11.84C10.1111 11.7547 9.83379 11.712 9.53513 11.712ZM15.9714 10.8H20.8994V11.408C20.5474 11.632 20.142 11.7867 19.6834 11.872V18.032C19.6834 18.5547 19.742 18.992 19.8594 19.344C19.9767 19.696 20.1474 19.984 20.3714 20.208C20.5954 20.4213 20.862 20.576 21.1714 20.672C21.4914 20.768 21.8487 20.816 22.2434 20.816C22.5954 20.816 22.9154 20.768 23.2034 20.672C23.502 20.5653 23.758 20.4 23.9714 20.176C24.1954 19.952 24.366 19.6587 24.4834 19.296C24.6007 18.9333 24.6594 18.4853 24.6594 17.952V11.952C24.414 11.8987 24.158 11.824 23.8914 11.728C23.6354 11.632 23.422 11.5253 23.2514 11.408V10.8H27.2194V11.408C27.0274 11.5467 26.814 11.6587 26.5794 11.744C26.3447 11.8293 26.1154 11.8987 25.8914 11.952V17.968C25.8914 19.3333 25.5287 20.3733 24.8034 21.088C24.0887 21.792 23.0754 22.144 21.7634 22.144C20.334 22.144 19.23 21.824 18.4514 21.184C17.6727 20.544 17.2834 19.52 17.2834 18.112V11.872C17.07 11.84 16.846 11.7867 16.6114 11.712C16.3767 11.6267 16.1634 11.5253 15.9714 11.408V10.8Z" fill="white"/>
</svg>
