<svg width="24" height="24" viewBox="0 0 24 24" fill="none" xmlns="http://www.w3.org/2000/svg">
<path d="M12 24C18.6274 24 24 18.6274 24 12C24 5.37258 18.6274 0 12 0C5.37258 0 0 5.37258 0 12C0 18.6274 5.37258 24 12 24Z" fill="#F50035"/>
<path d="M12.1609 18.5308C11.9259 18.5313 11.6963 18.46 11.5028 18.3266L10.2118 17.4465L8.89806 18.319C8.74183 18.4225 8.56046 18.4817 8.37325 18.4903C8.18604 18.4989 8 18.4566 7.83494 18.3679C7.66987 18.2791 7.53196 18.1473 7.43588 17.9864C7.3398 17.8255 7.28915 17.6415 7.28932 17.4541V15.1066C7.28883 14.9489 7.3253 14.7933 7.3958 14.6523C7.4663 14.5113 7.56888 14.3888 7.69529 14.2946L11.0893 11.7731C11.129 11.7433 11.1742 11.7216 11.2223 11.7093C11.2705 11.6969 11.3205 11.6942 11.3697 11.7012C11.4189 11.7083 11.4662 11.7249 11.5089 11.7502C11.5517 11.7755 11.589 11.809 11.6188 11.8487C11.6486 11.8885 11.6703 11.9337 11.6826 11.9818C11.6949 12.0299 11.6977 12.08 11.6906 12.1292C11.6836 12.1783 11.667 12.2256 11.6417 12.2684C11.6164 12.3111 11.5829 12.3484 11.5432 12.3782L8.15673 14.9023C8.12461 14.9258 8.09849 14.9565 8.08053 14.992C8.06256 15.0275 8.05324 15.0668 8.05335 15.1066V17.4541C8.05249 17.5055 8.06565 17.5561 8.09142 17.6005C8.11719 17.6449 8.1546 17.6815 8.1996 17.7063C8.24368 17.7317 8.29368 17.7451 8.34458 17.7451C8.39549 17.7451 8.44549 17.7317 8.48958 17.7063L10.0025 16.6976C10.0647 16.6556 10.138 16.6331 10.213 16.6331C10.2881 16.6331 10.3614 16.6556 10.4236 16.6976L11.9239 17.7063C11.9699 17.7374 12.0218 17.7589 12.0763 17.7696C12.1309 17.7802 12.187 17.7798 12.2414 17.7683C12.2958 17.7567 12.3473 17.7343 12.3928 17.7025C12.4383 17.6706 12.477 17.6299 12.5064 17.5827L18.8607 7.10571C18.8802 7.07419 18.8896 7.03736 18.8873 7.00032C18.885 6.96328 18.8713 6.92785 18.848 6.89895C18.8246 6.87036 18.7927 6.84987 18.757 6.84037C18.7212 6.83087 18.6834 6.83284 18.6488 6.84599L4.60389 11.9168C4.53293 11.9429 4.4705 11.988 4.42337 12.0471C4.37625 12.1063 4.34624 12.1772 4.3366 12.2522C4.32703 12.3263 4.33823 12.4016 4.36895 12.4697C4.39967 12.5378 4.44871 12.5961 4.51059 12.638L6.52782 14.0122C6.57506 14.0375 6.61636 14.0726 6.64901 14.1152C6.68166 14.1577 6.7049 14.2066 6.71718 14.2588C6.72947 14.311 6.73052 14.3652 6.72027 14.4178C6.71002 14.4704 6.68871 14.5203 6.65774 14.564C6.62677 14.6078 6.58685 14.6444 6.54063 14.6716C6.49442 14.6988 6.44295 14.7158 6.38965 14.7215C6.33636 14.7273 6.28245 14.7217 6.2315 14.705C6.18054 14.6884 6.13372 14.6611 6.09412 14.6249L4.07689 13.2557C3.89967 13.1351 3.7591 12.968 3.67058 12.7727C3.58206 12.5775 3.54901 12.3616 3.57506 12.1488C3.6011 11.936 3.68523 11.7345 3.81823 11.5664C3.95123 11.3983 4.12796 11.27 4.32904 11.1956L18.379 6.11979C18.5628 6.04776 18.7646 6.03584 18.9555 6.08575C19.1464 6.13565 19.3166 6.24481 19.4416 6.39753C19.5666 6.55024 19.6399 6.73866 19.6511 6.93568C19.6622 7.1327 19.6106 7.32819 19.5036 7.49403L13.1494 17.9735C13.0655 18.1085 12.9553 18.2252 12.8253 18.3166C12.6953 18.408 12.5483 18.4723 12.3929 18.5056C12.3165 18.5213 12.2389 18.5297 12.1609 18.5308Z" fill="white"/>
</svg>
