<svg width="24" height="24" viewBox="0 0 24 24" fill="none" xmlns="http://www.w3.org/2000/svg">
<path d="M12 24C18.6274 24 24 18.6274 24 12C24 5.37258 18.6274 0 12 0C5.37258 0 0 5.37258 0 12C0 18.6274 5.37258 24 12 24Z" fill="#16428D"/>
<path d="M18.9948 17.6541H4.99127C4.89672 17.6541 4.80604 17.6166 4.73918 17.5497C4.67233 17.4829 4.63477 17.3922 4.63477 17.2976V16.8556C4.63477 14.5347 6.21409 12.7914 9.09466 11.9287V11.8039C8.33562 10.6985 7.92578 9.39075 7.91819 8.04987C7.91819 5.47233 9.5902 3.67554 11.9859 3.67554C14.3816 3.67554 16.0537 5.45807 16.0537 8.04987C16.0466 9.39137 15.6353 10.6996 14.8736 11.8039V11.9287C17.7542 12.7914 19.3371 14.5347 19.3371 16.8556V17.2976C19.3372 17.3898 19.3016 17.4784 19.2378 17.5448C19.174 17.6113 19.0869 17.6505 18.9948 17.6541ZM5.34778 16.9411H18.6383V16.8556C18.6383 14.8164 17.1481 13.2905 14.4387 12.5418C14.3609 12.521 14.2925 12.4743 14.2446 12.4096C14.1967 12.3449 14.1721 12.2658 14.1749 12.1853V11.6862C14.1756 11.6103 14.2006 11.5366 14.2462 11.4759C14.9622 10.4766 15.3497 9.27925 15.3549 8.04987C15.3549 5.91083 13.9752 4.38855 12.0002 4.38855C10.0251 4.38855 8.64546 5.89301 8.64546 8.04987C8.65066 9.27925 9.03814 10.4766 9.7542 11.4759C9.79848 11.5371 9.8222 11.6107 9.82193 11.6862V12.196C9.82489 12.2761 9.80083 12.3547 9.75361 12.4194C9.7064 12.4841 9.63879 12.531 9.56168 12.5525C6.85223 13.2834 5.34778 14.8164 5.34778 16.8556V16.9411Z" fill="white"/>
</svg>
