<svg width="52" height="52" viewBox="0 0 52 52" fill="none" xmlns="http://www.w3.org/2000/svg">
<circle cx="25" cy="26" r="13" fill="white"/>
<path d="M26 0.625C11.9871 0.625 0.625 11.9871 0.625 26C0.625 40.0129 11.9871 51.375 26 51.375C40.0129 51.375 51.375 40.0129 51.375 26C51.375 11.9871 40.0129 0.625 26 0.625ZM34.1619 26.3908L21.7916 35.391C21.7238 35.4397 21.6438 35.4688 21.5606 35.4751C21.4773 35.4814 21.3939 35.4645 21.3196 35.4265C21.2452 35.3884 21.1828 35.3306 21.1392 35.2594C21.0956 35.1882 21.0724 35.1064 21.0723 35.0229V17.0338C21.072 16.9501 21.0949 16.868 21.1384 16.7965C21.182 16.7251 21.2445 16.6671 21.3189 16.6289C21.3934 16.5908 21.477 16.5741 21.5605 16.5805C21.6439 16.587 21.7239 16.6165 21.7916 16.6656L34.1619 25.6602C34.2204 25.7015 34.268 25.7562 34.3009 25.8198C34.3338 25.8834 34.351 25.9539 34.351 26.0255C34.351 26.0971 34.3338 26.1676 34.3009 26.2312C34.268 26.2947 34.2204 26.3495 34.1619 26.3908V26.3908Z" fill="#F70035"/>
</svg>
