<svg width="32" height="32" viewBox="0 0 32 32" fill="none" xmlns="http://www.w3.org/2000/svg">
<path d="M15.9975 1.01074e-07C13.0489 -0.000331297 10.1575 0.814277 7.64277 2.35384C5.12807 3.8934 3.08793 6.098 1.74771 8.72409C0.407495 11.3502 -0.180638 14.2956 0.048285 17.2349C0.277208 20.1742 1.31428 22.9931 3.04493 25.3801L1.05093 31.3242L7.20106 29.3574C9.80812 31.087 12.8688 32.0064 15.9975 32C20.2417 32 24.3119 30.3143 27.313 27.3137C30.314 24.3131 32 20.2434 32 16C32 11.7565 30.314 7.68687 27.313 4.68629C24.3119 1.68571 20.2417 1.01074e-07 15.9975 1.01074e-07Z" fill="#F50035"/>
<path d="M21.2566 25.4642C20.315 25.4642 18.9498 25.1784 16.3808 24.1194C13.4857 22.9191 10.614 20.4211 8.29049 17.0422L8.20643 16.9212L8.17953 16.8876C7.43977 15.879 6.20234 13.8786 6.20234 11.7907C6.17856 11.0074 6.31985 10.2278 6.61704 9.50263C6.91422 8.77745 7.36066 8.12288 7.92734 7.58145L7.96769 7.5411C8.51105 7.04417 9.22936 6.783 9.96505 6.8149C10.1567 6.8149 10.3282 6.8149 10.4862 6.83171H10.5266C11.1991 6.86197 11.6093 7.03343 11.9826 7.9311L12.4634 9.07756C12.84 9.98867 13.3545 11.236 13.4251 11.3906C13.538 11.5889 13.6023 11.8111 13.6128 12.039C13.6233 12.2669 13.5798 12.494 13.4857 12.7018C13.347 12.9913 13.1631 13.2569 12.9409 13.4886L12.9006 13.5356C12.7963 13.6567 12.6955 13.7643 12.5946 13.8718C12.4937 13.9794 12.3424 14.1442 12.2146 14.2988C11.9826 14.5711 11.9893 14.5812 12.0734 14.7258C12.7467 15.875 13.5877 16.9175 14.5684 17.8189C15.5765 18.7402 16.7446 19.4694 18.015 19.9706L18.1664 20.0311C18.2562 20.0764 18.3571 20.0951 18.4571 20.0849C18.5572 20.0748 18.6523 20.0363 18.7313 19.974C19.0985 19.5448 19.442 19.0959 19.7602 18.6291L19.9384 18.377C20.1184 18.097 20.3921 17.8902 20.7106 17.7935C21.0291 17.6968 21.3716 17.7165 21.6769 17.8491C22.1779 18.024 24.8007 19.3284 24.9117 19.3856L25.1773 19.5134C25.5134 19.6285 25.8066 19.843 26.0179 20.1286C26.26 20.5556 26.1558 21.7155 25.7826 22.7712C25.3286 24.0521 23.6339 25.0574 22.272 25.3532C21.9384 25.4261 21.598 25.4633 21.2566 25.4642ZM9.97851 7.82351C9.5161 7.79946 9.06145 7.94939 8.70409 8.24377L8.66038 8.29084C8.18367 8.73683 7.80777 9.27949 7.55782 9.88251C7.30788 10.4855 7.18967 11.135 7.21111 11.7874C7.21111 13.1019 7.86009 14.7426 8.99328 16.2858L9.01345 16.316C9.05236 16.3642 9.08829 16.4148 9.12104 16.4673C11.3336 19.6714 14.0506 22.0584 16.7675 23.1914C20.4462 24.7144 21.428 24.506 22.0737 24.3681C23.1598 24.1328 24.5283 23.3259 24.8444 22.435C25.068 21.858 25.1699 21.241 25.1437 20.6228C25.0865 20.5825 24.9016 20.4951 24.7503 20.4211L24.4745 20.2866C23.6036 19.8529 21.6937 18.9183 21.3473 18.7972C21.2995 18.7686 21.2462 18.7501 21.1909 18.7429C21.1355 18.7357 21.0793 18.74 21.0257 18.7554C20.9721 18.7709 20.9222 18.7972 20.8792 18.8327C20.8362 18.8682 20.801 18.9122 20.7757 18.962L20.5975 19.2141C20.2533 19.7193 19.8818 20.2053 19.4845 20.6699C19.2677 20.8844 18.9908 21.028 18.6905 21.0814C18.3902 21.1349 18.0807 21.0957 17.8032 20.9691L17.662 20.912C16.277 20.3629 15.0041 19.5653 13.906 18.5585C12.8474 17.5776 11.9407 16.4445 11.2159 15.1965C11.0651 14.95 11.0051 14.6586 11.0462 14.3725C11.0873 14.0865 11.2271 13.8238 11.4412 13.6298C11.5925 13.4415 11.7371 13.2936 11.875 13.1456C12.0129 12.9977 12.0566 12.9506 12.1541 12.8397L12.1944 12.7926C12.3578 12.6262 12.493 12.4343 12.5946 12.2244C12.6349 12.1471 12.6517 12.0462 12.5307 11.7907C12.45 11.6226 12.07 10.7048 11.5455 9.4373L11.0781 8.31437C10.8864 7.85041 10.873 7.85041 10.5064 7.8336H10.4627C10.308 7.83024 10.15 7.82351 9.97851 7.82351Z" fill="white"/>
</svg>
