<svg width="24" height="24" viewBox="0 0 24 24" fill="none" xmlns="http://www.w3.org/2000/svg">
<path d="M12 24C18.6274 24 24 18.6274 24 12C24 5.37258 18.6274 0 12 0C5.37258 0 0 5.37258 0 12C0 18.6274 5.37258 24 12 24Z" fill="#16428D"/>
<path d="M5.01954 19.5187C4.96285 19.5188 4.90695 19.5054 4.85646 19.4797C4.80598 19.4539 4.76237 19.4164 4.72926 19.3704C4.69614 19.3244 4.67448 19.2712 4.66606 19.2151C4.65764 19.1591 4.66272 19.1018 4.68086 19.0481L5.86446 15.5508C5.06954 14.1748 4.7508 12.5751 4.95767 10.9995C5.16453 9.42401 5.88544 7.96075 7.00861 6.83666C8.13178 5.71258 9.59445 4.99047 11.1698 4.78231C12.7452 4.57415 14.3452 4.89158 15.7218 5.68537C17.0984 6.47916 18.1746 7.70496 18.7836 9.17269C19.3925 10.6404 19.5002 12.2681 19.09 13.8032C18.6797 15.3384 17.7744 16.6953 16.5144 17.6636C15.2544 18.6319 13.7102 19.1574 12.1211 19.1586C10.9557 19.1576 9.80755 18.8764 8.77355 18.3386L5.12649 19.5008C5.09196 19.5122 5.05589 19.5182 5.01954 19.5187ZM12.1211 5.55433C10.4065 5.55147 8.7606 6.22817 7.54383 7.43625C6.32707 8.64433 5.63859 10.2853 5.62916 12C5.62886 13.1741 5.9507 14.3258 6.55964 15.3297C6.58652 15.3743 6.60332 15.4242 6.60886 15.4759C6.61441 15.5276 6.60856 15.58 6.59173 15.6292L5.58282 18.6096L8.70581 17.6185C8.75198 17.6032 8.80078 17.5976 8.84921 17.6019C8.89765 17.6062 8.94469 17.6203 8.98745 17.6435C9.84962 18.1288 10.8117 18.4096 11.7996 18.4642C12.7875 18.5188 13.7747 18.3458 14.6851 17.9584C15.5955 17.5711 16.4048 16.9799 17.0505 16.2303C17.6962 15.4807 18.1612 14.5928 18.4094 13.6351C18.6577 12.6773 18.6826 11.6754 18.4823 10.7065C18.2821 9.73761 17.8619 8.82766 17.2543 8.04685C16.6467 7.26604 15.8679 6.63523 14.9779 6.20307C14.0879 5.77091 13.1105 5.54896 12.1211 5.55433ZM13.975 15.565C13.6684 15.565 13.2049 15.4616 12.1924 15.0695C10.9658 14.5188 9.92992 13.6168 9.21562 12.4777L9.1871 12.4313C8.74169 11.8777 8.47667 11.2008 8.42774 10.4919C8.42441 10.1983 8.48049 9.90704 8.59261 9.63563C8.70472 9.36423 8.87056 9.11829 9.08014 8.91261L9.11223 8.88053C9.20201 8.78014 9.31187 8.69971 9.43469 8.64444C9.55751 8.58918 9.69056 8.5603 9.82524 8.55967H10.0213H10.1497C10.3636 8.55967 10.6559 8.58463 10.8627 9.05878L11.0516 9.54363C11.1871 9.86449 11.3261 10.2067 11.3547 10.2566C11.4052 10.3503 11.4317 10.455 11.4317 10.5615C11.4317 10.6679 11.4052 10.7726 11.3547 10.8663L11.3297 10.9162C11.2814 11.0256 11.2177 11.1276 11.1407 11.2192L11.0552 11.3155C10.9981 11.3832 10.9411 11.4509 10.8912 11.5044C11.1165 11.876 11.3938 12.2133 11.7147 12.5062C12.0515 12.8073 12.4373 13.0485 12.8555 13.2192L12.9696 13.2691C13.1301 13.0837 13.3547 12.8199 13.4295 12.7058C13.5096 12.5754 13.6361 12.4801 13.7836 12.4391C13.9311 12.3981 14.0886 12.4144 14.2245 12.4848C14.4099 12.549 15.294 12.9768 15.4117 13.0445L15.483 13.0766C15.6415 13.1317 15.7795 13.2336 15.8787 13.3689C15.9891 13.7312 15.9651 14.1211 15.811 14.467C15.6042 15.041 14.7629 15.4581 14.385 15.4937H14.2958C14.1944 15.5297 14.0891 15.5536 13.9821 15.565H13.975ZM9.81811 9.26912C9.78289 9.27042 9.74837 9.27939 9.71697 9.2954C9.68557 9.31141 9.65804 9.33407 9.63629 9.36181L9.59708 9.40103C9.4475 9.54349 9.32956 9.71582 9.25095 9.90684C9.17233 10.0979 9.13478 10.3033 9.14075 10.5098C9.1943 11.0613 9.40738 11.5854 9.75394 12.0178L9.80385 12.0926C10.4513 13.1074 11.3805 13.9114 12.4776 14.4064C13.7896 14.9162 13.9999 14.8663 14.139 14.8342C14.2019 14.8162 14.2663 14.8043 14.3315 14.7985C14.6612 14.7225 14.9531 14.5317 15.155 14.2602C15.2115 14.1055 15.2451 13.9434 15.2548 13.7789L15.1942 13.7504L15.1087 13.7112C14.8983 13.6042 14.1211 13.2299 13.9999 13.1836C13.8324 13.4117 13.5151 13.7754 13.4759 13.8217C13.3819 13.9343 13.2502 14.009 13.1053 14.032C12.9605 14.0549 12.8122 14.0246 12.688 13.9465L12.5882 13.9037C12.1011 13.7004 11.6506 13.4186 11.2548 13.0695C10.8606 12.7062 10.5218 12.287 10.2495 11.8253C10.1712 11.7033 10.141 11.5567 10.1647 11.4138C10.1884 11.2708 10.2644 11.1418 10.3778 11.0517C10.4206 11.0089 10.4705 10.9447 10.524 10.8841L10.6131 10.7771C10.652 10.7327 10.6833 10.6821 10.7058 10.6274V10.6025C10.663 10.5062 10.5668 10.2745 10.3814 9.82884L10.1782 9.34042C10.175 9.31606 10.169 9.29214 10.1604 9.26912C10.101 9.27376 10.0414 9.27376 9.9821 9.26912H9.81811Z" fill="white"/>
</svg>
